<svg xmlns="http://www.w3.org/2000/svg" viewBox="0 0 54 288" fill="#385671">
  <defs>
    <mask id="mask" width="1015.9" height="703.18" x="-363.95" y="-231.89" maskUnits="userSpaceOnUse">
    <path transform="rotate(180 144 144)" style="mix-blend-mode:multiply" fill="url(#linear-gradient)" d="M-15.57 18.4h319.14v251.21H-15.57z"/></mask>
  </defs>
  <rect fill="#385671" x="0" y="0" width="288" height="288"/>
  <path transform="translate(280, 0)" d="M-363.95 16l28.07 16.21v32.4l28.06 16.2V110l-28.07 16.2v35.64l28.07 16.2v32.41l28.06 16.2v29.15l-28.06 16.2v35.63l28.06 16.21v32.4l30.86 17.82 28.07-16.2 28.06 16.2 28.06-16.2 25.27 14.59v32.4l30.86 17.82 28.07-16.2 28.06 16.2 28.06-16.2L.88 421.06v32.4l30.86 17.82 28.07-16.2 28.06 16.2 30.86-17.82v-32.4l28.07-16.2v-32.41l25.26-14.59 28.07 16.21 28.06-16.2 25.27 14.58v32.41l30.86 17.82 28.06-16.21 28.07 16.21 28.06-16.2 25.27 14.59v32.4l30.86 17.82 28.06-16.2 28.07 16.2 30.86-17.82v-32.4l28.06-16.21v-32.4L565 357.87l28 16.2 30.86-17.81v-32.41l28.14-16.2V272l-28.07-16.2v-32.4l-28.11-16.2V178l28.06-16.21v-35.6L595.82 110V77.58l-28.06-16.2V32.2L595.82 16v-35.64l-28.06-16.2v-32.4l-28.07-16.21v-29.17l28.07-16.21v-35.63l-28.07-16.21v-32.4l-30.86-17.82-28.06 16.2-28.07-16.2-30.86 17.82v32.4l-28.06 16.21v32.4l-25.27 14.59-28.06-16.2-28.06 16.2-25.27-14.59v-32.41l-30.86-17.81-28.07 16.2-28.06-16.2-30.86 17.81v32.41l-28.07 16.2v32.41l-25.26 14.58-28.07-16.2-28.06 16.2-25.27-14.59v-32.4L3.68-134.68l-28.06 16.2-28.07-16.2-28.06 16.2-25.27-14.59v-32.4l-30.86-17.82-28.06 16.2-28.07-16.2-30.86 17.82v32.4l-28.06 16.2v32.41L-277-69.87l-28-16.21-30.86 17.82v32.41l-28.07 16.2zm33.66 41.3V38.08a9.18 9.18 0 015.1-8.84l16.63-9.6a.46.46 0 01.74.43v19.2a9.18 9.18 0 01-5.1 8.84l-16.63 9.59a.46.46 0 01-.74-.42zm20.16 15.7l-16.63-9.61a.46.46 0 010-.85l16.62-9.6a9.17 9.17 0 0110.21 0l16.62 9.6a.46.46 0 010 .85L-299.92 73a9.21 9.21 0 01-10.21 0zm64-98.55v-19.2a.46.46 0 01.74-.43l16.63 9.6a9.17 9.17 0 015.1 8.84v19.2a.46.46 0 01-.74.42l-16.6-9.59a9.16 9.16 0 01-5.1-8.83zm0-32.41v-19.2a.47.47 0 01.74-.43l16.63 9.6a9.18 9.18 0 015.1 8.84v19.2a.46.46 0 01-.74.43l-16.6-9.59a9.17 9.17 0 01-5.1-8.84zm30.37 62.29l16.63 9.6a.47.47 0 010 .86l-16.63 9.6a9.19 9.19 0 01-10.2 0l-16.63-9.6a.47.47 0 010-.86l16.63-9.6a9.15 9.15 0 0110.23.01zm127.35-53.44l-16.59 9.6a.46.46 0 01-.74-.42v-19.21a9.16 9.16 0 015.1-8.83l16.64-9.6a.46.46 0 01.74.43v19.2a9.16 9.16 0 01-5.1 8.83zM51.91-.5L35.28 9.1a.46.46 0 01-.74-.42v-19.2a9.17 9.17 0 015.1-8.84L56.27-29a.46.46 0 01.74.43v19.2a9.16 9.16 0 01-5.1 8.87zM35.28 19.64l16.63 9.61A9.16 9.16 0 0157 38.08v19.21a.46.46 0 01-.74.42l-16.63-9.6a9.17 9.17 0 01-5.1-8.84V20.08a.47.47 0 01.75-.44zM304.49-49.1l-16.63 9.6a.46.46 0 01-.74-.42v-19.21a9.16 9.16 0 015.1-8.83l16.63-9.6a.46.46 0 01.74.43v19.2a9.17 9.17 0 01-5.1 8.83zm-17.37 20.57a.47.47 0 01.74-.43l16.63 9.6a9.18 9.18 0 015.1 8.84v19.2a.47.47 0 01-.75.43l-16.62-9.6a9.18 9.18 0 01-5.1-8.84zm112.25-45.61v-19.2a.47.47 0 01.74-.43l16.63 9.6a9.18 9.18 0 015.1 8.84v19.2a.46.46 0 01-.74.43l-16.63-9.6a9.2 9.2 0 01-5.1-8.84zm0-32.4v-19.2a.46.46 0 01.74-.43l16.63 9.6a9.16 9.16 0 015.1 8.83v19.21a.46.46 0 01-.74.42l-16.63-9.6a9.17 9.17 0 01-5.1-8.83zm30.37 62.28l16.63 9.6a.47.47 0 010 .86l-16.63 9.6a9.15 9.15 0 01-10.2 0l-16.63-9.6a.47.47 0 010-.86l16.63-9.6a9.19 9.19 0 0110.2 0zm138 164.56v-19.2a.46.46 0 01.74-.43l16.63 9.6a9.17 9.17 0 015.1 8.83v19.21a.47.47 0 01-.75.42l-16.62-9.6a9.16 9.16 0 01-5.08-8.83zm2.3 13.68l16.63 9.6a.46.46 0 010 .85L570.06 154a9.15 9.15 0 01-10.2 0l-16.63-9.6a.46.46 0 010-.85l16.63-9.6a9.15 9.15 0 0110.2.05zm-2.3 180.75v-19.2a.47.47 0 01.74-.43l16.63 9.6a9.18 9.18 0 015.1 8.84v19.2a.47.47 0 01-.75.43l-16.62-9.6a9.18 9.18 0 01-5.08-8.84zm-10.7 8.84l-16.62 9.6a.47.47 0 01-.75-.43v-19.2a9.2 9.2 0 015.1-8.84l16.63-9.6a.47.47 0 01.74.43v19.2a9.18 9.18 0 01-5.1 8.84zM529 339.77l-16.63 9.6a.46.46 0 01-.74-.42v-19.21a9.16 9.16 0 015.1-8.83l16.63-9.61a.47.47 0 01.74.44v19.19a9.17 9.17 0 01-5.1 8.84zM455.5 412v-19.2a.46.46 0 01.74-.43l16.63 9.6a9.16 9.16 0 015.1 8.83V430a.46.46 0 01-.74.42l-16.63-9.6a9.16 9.16 0 01-5.1-8.82zm-10.69 8.83l-16.63 9.6a.46.46 0 01-.74-.42v-19.26a9.16 9.16 0 015.1-8.83l16.63-9.6a.46.46 0 01.74.43V412a9.17 9.17 0 01-5.1 8.83zm-73.5-89.85v-19.2a.46.46 0 01.74-.43l16.63 9.6a9.17 9.17 0 015.1 8.84v19.2a.46.46 0 01-.74.42l-16.63-9.6a9.16 9.16 0 01-5.1-8.88zm-56.13 32.4v-19.24a.47.47 0 01.74-.44l16.63 9.61a9.16 9.16 0 015.1 8.83v19.21a.46.46 0 01-.74.42l-16.63-9.6a9.17 9.17 0 01-5.1-8.84zm-10.69 8.84l-16.63 9.6a.46.46 0 01-.74-.42v-19.26a9.16 9.16 0 015.1-8.83l16.63-9.61a.47.47 0 01.74.44v19.19a9.19 9.19 0 01-5.1 8.84zM231 282.32v-19.2a.46.46 0 01.74-.43l16.63 9.6a9.17 9.17 0 015.1 8.84v19.2a.46.46 0 01-.74.42l-16.63-9.6a9.16 9.16 0 01-5.1-8.83zm-56.13 32.4v-19.19a.47.47 0 01.74-.44l16.63 9.61a9.16 9.16 0 015.1 8.83v19.21a.46.46 0 01-.74.42l-16.6-9.6a9.17 9.17 0 01-5.14-8.84zm5.1-91l16.63-9.6a.46.46 0 01.74.43v19.2a9.18 9.18 0 01-5.1 8.84l-16.63 9.6a.47.47 0 01-.74-.43v-19.2a9.18 9.18 0 015.1-8.84zm0 32.41l16.63-9.6a.46.46 0 01.74.43v19.2a9.16 9.16 0 01-5.1 8.83l-16.63 9.6a.46.46 0 01-.74-.42v-19.25a9.16 9.16 0 015.1-8.83zM195 299.85l-16.63-9.6a.47.47 0 010-.86L195 279.8a9.15 9.15 0 0110.2 0l16.63 9.59a.47.47 0 010 .86l-16.63 9.6a9.15 9.15 0 01-10.2 0zM208 275a9.16 9.16 0 01-5.11-8.83v-19.2a.46.46 0 01.74-.43l16.63 9.6a9.16 9.16 0 015.11 8.83v19.21a.47.47 0 01-.75.42zm17.37-23.23a.47.47 0 01-.75.43L208 242.55a9.19 9.19 0 01-5.11-8.84v-19.2a.46.46 0 01.74-.43l16.63 9.6a9.19 9.19 0 015.11 8.84zm-5.11-57.78l-16.62 9.6a.47.47 0 01-.75-.42v-19.26a9.16 9.16 0 015.11-8.83l16.63-9.61a.47.47 0 01.74.44v19.19a9.18 9.18 0 01-5.11 8.84zm2.8 24.9l-16.63-9.6a.47.47 0 010-.86l16.63-9.6a9.19 9.19 0 0110.2 0l16.63 9.6a.47.47 0 010 .86l-16.63 9.6a9.15 9.15 0 01-10.17-.05zM192.23 48.11l-16.63 9.6a.46.46 0 01-.74-.42v-19.2a9.17 9.17 0 015.1-8.84l16.63-9.6a.46.46 0 01.74.43v19.2a9.16 9.16 0 01-5.1 8.83zM178.4 62.56L195 53a9.15 9.15 0 0110.2 0l16.63 9.6a.46.46 0 010 .85L205.23 73A9.19 9.19 0 01195 73l-16.6-9.59a.46.46 0 010-.85zm41.89-30.65l-16.62 9.6a.47.47 0 01-.75-.42V21.88a9.16 9.16 0 015.08-8.83l16.63-9.6a.46.46 0 01.74.43v19.2a9.16 9.16 0 01-5.11 8.83zm-17.37 54.78a9.17 9.17 0 015.08-8.83l16.63-9.6a.46.46 0 01.74.43v19.2a9.16 9.16 0 01-5.11 8.83l-16.62 9.6a.47.47 0 01-.75-.42V86.69zm3.54 24.48l16.63-9.6a9.15 9.15 0 0110.2 0l16.63 9.6a.46.46 0 010 .85l-16.63 9.6a9.15 9.15 0 01-10.2 0L206.46 112a.46.46 0 010-.83zm57.69-130.53L280.78-29a.47.47 0 01.74.43v19.2a9.18 9.18 0 01-5.1 8.84L259.8 9.11a.47.47 0 01-.75-.43v-19.2a9.2 9.2 0 015.1-8.84zm0 32.41l16.63-9.6a.46.46 0 01.74.43v19.2a9.16 9.16 0 01-5.1 8.83l-16.62 9.6a.47.47 0 01-.75-.42V21.88a9.17 9.17 0 015.1-8.83zm-4.36 39l16.63 9.61a9.16 9.16 0 015.1 8.83V89.7a.46.46 0 01-.74.42l-16.63-9.6a9.19 9.19 0 01-5.1-8.84V52.49a.47.47 0 01.74-.44zm100.82 28.47L344 90.12a.47.47 0 01-.75-.42V70.49a9.16 9.16 0 015.11-8.83l16.64-9.6a.46.46 0 01.74.43v19.2a9.16 9.16 0 01-5.11 8.83zm-15.06 21l16.63 9.6a.46.46 0 010 .85l-16.63 9.61a9.19 9.19 0 01-10.2 0L318.72 112a.46.46 0 010-.85l16.63-9.6a9.15 9.15 0 0110.2.02zm58.92-72.32l16.63-9.6a.47.47 0 01.74.43v19.2a9.18 9.18 0 01-5.1 8.84l-16.62 9.6a.47.47 0 01-.75-.43V38.09a9.2 9.2 0 015.1-8.84zm23-87.18v-19.2a.46.46 0 01.74-.43l16.6 9.61a9.16 9.16 0 015.1 8.83v19.21a.47.47 0 01-.75.42l-16.62-9.6a9.17 9.17 0 01-5.1-8.79zm45.43 41.24l-16.63 9.6a.46.46 0 01-.74-.43v-19.2a9.18 9.18 0 015.1-8.84l16.63-9.6a.47.47 0 01.74.43v19.2a9.17 9.17 0 01-5.1 8.84zm-15.09 21.1L474.43 14a.47.47 0 010 .86l-16.63 9.6a9.17 9.17 0 01-10.21 0L431 14.81a.47.47 0 010-.86l16.6-9.59a9.17 9.17 0 0110.21 0zM516.73-68l16.63-9.6a.46.46 0 01.74.43v19.2a9.16 9.16 0 01-5.1 8.87l-16.63 9.6a.46.46 0 01-.74-.42v-19.21a9.17 9.17 0 015.1-8.83zm0 32.4l16.63-9.6a.47.47 0 01.74.43v19.2a9.17 9.17 0 01-5.1 8.84l-16.63 9.6a.46.46 0 01-.74-.43v-19.2a9.16 9.16 0 015.1-8.83zm-4.36 39L529 13.05a9.18 9.18 0 015.1 8.84v19.2a.46.46 0 01-.74.43l-16.63-9.6a9.18 9.18 0 01-5.1-8.84V3.88a.47.47 0 01.74-.43zm49.79 229.07v19.21a.46.46 0 01-.74.42l-16.63-9.6a9.17 9.17 0 01-5.1-8.83v-19.2a.46.46 0 01.74-.43l16.63 9.6a9.17 9.17 0 015.1 8.88zm0 32.41v19.2a.46.46 0 01-.74.43L544.79 275a9.19 9.19 0 01-5.1-8.84v-19.2a.47.47 0 01.74-.43l16.63 9.6a9.16 9.16 0 015.1 8.8zm-30.36-62.24L515.16 193a.47.47 0 010-.86l16.63-9.59a9.15 9.15 0 0110.2 0l16.62 9.59a.47.47 0 010 .86L542 202.64a9.15 9.15 0 01-10.2 0zM529 275l-16.63 9.6a.46.46 0 01-.74-.43v-19.2a9.18 9.18 0 015.1-8.84l16.63-9.6a.47.47 0 01.74.43v19.2A9.17 9.17 0 01529 275zm0-32.41l-16.63 9.6a.46.46 0 01-.74-.42v-19.25a9.17 9.17 0 015.1-8.83l16.63-9.6a.46.46 0 01.74.43v19.2a9.16 9.16 0 01-5.1 8.83zm-28.07 48.61l-16.62 9.6a.47.47 0 01-.75-.42v-19.25a9.16 9.16 0 015.11-8.83l16.63-9.6a.46.46 0 01.74.43v19.2a9.16 9.16 0 01-5.11 8.83zm-40.33 29.7l16.63-9.6a.47.47 0 01.74.43v19.2a9.18 9.18 0 01-5.1 8.84l-16.63 9.6a.46.46 0 01-.74-.43v-19.2a9.18 9.18 0 015.1-8.84zm-5.1 41.25a9.17 9.17 0 015.1-8.84l16.63-9.6a.46.46 0 01.74.43v19.2a9.16 9.16 0 01-5.1 8.83l-16.63 9.6a.46.46 0 01-.74-.42zm21.73-61.39l-16.63-9.6a9.17 9.17 0 01-5.1-8.84v-19.19a.47.47 0 01.74-.44l16.63 9.61a9.16 9.16 0 015.1 8.83v19.2a.46.46 0 01-.74.43zm-27.32 29v19.2a.47.47 0 01-.75.43l-16.62-9.6a9.18 9.18 0 01-5.1-8.84v-19.2a.47.47 0 01.74-.43l16.63 9.6a9.2 9.2 0 015.1 8.82zm0 32.41v19.2a.47.47 0 01-.75.42l-16.62-9.6a9.16 9.16 0 01-5.1-8.83v-19.2a.46.46 0 01.74-.43l16.63 9.6a9.19 9.19 0 015.1 8.82zm-30.37-62.29l-16.63-9.6a.47.47 0 010-.86l16.63-9.6a9.15 9.15 0 0110.2 0l16.63 9.6a.47.47 0 010 .86l-16.63 9.6a9.19 9.19 0 01-10.2-.02zm-30.86-8.7l-16.63 9.6a.46.46 0 01-.74-.43v-19.2a9.16 9.16 0 015.1-8.83l16.59-9.63a.47.47 0 01.74.44v19.19a9.17 9.17 0 01-5.1 8.84zm2.8-39.91l-16.63-9.6a.47.47 0 010-.86l16.62-9.6a9.19 9.19 0 0110.2 0l16.62 9.6a.47.47 0 010 .86l-16.63 9.6a9.19 9.19 0 01-10.18-.02zm-2.8-57.31l-16.63 9.6a.46.46 0 01-.74-.42v-19.23a9.16 9.16 0 015.1-8.83l16.63-9.6a.46.46 0 01.74.43v19.2a9.16 9.16 0 01-5.1 8.83zm-17.37 22.38a9.18 9.18 0 015.1-8.84l16.63-9.6a.47.47 0 01.74.43v19.2a9.18 9.18 0 01-5.1 8.84L372.05 236a.46.46 0 01-.74-.43v-19.2zM534.1 86.7v19.2a.46.46 0 01-.74.43l-16.63-9.6a9.18 9.18 0 01-5.1-8.84v-19.2a.47.47 0 01.74-.43l16.63 9.6a9.18 9.18 0 015.1 8.84zm-5.1 91l-16.63 9.6a.46.46 0 01-.74-.42v-19.17a9.16 9.16 0 015.1-8.83l16.63-9.6a.46.46 0 01.74.43v19.2a9.16 9.16 0 01-5.1 8.83zm-17.37-76.6a.46.46 0 01.74-.43l16.63 9.6a9.17 9.17 0 015.1 8.83v19.21a.46.46 0 01-.74.42l-16.63-9.6a9.16 9.16 0 01-5.1-8.83zm2.3 32.88l16.63 9.6a.46.46 0 010 .85L513.93 154a9.15 9.15 0 01-10.2 0l-16.63-9.6a.46.46 0 010-.85l16.63-9.6a9.15 9.15 0 0110.2.05zm-13 60l-16.62 9.6a.47.47 0 01-.75-.42v-19.2a9.18 9.18 0 015.11-8.84l16.63-9.6a.46.46 0 01.74.43v19.2a9.16 9.16 0 01-5.11 8.83zm0-64.81l-16.62 9.6a.47.47 0 01-.75-.42V119.1a9.17 9.17 0 015.11-8.83l16.63-9.6a.46.46 0 01.74.43v19.2a9.16 9.16 0 01-5.11 8.83zm0-32.4l-16.62 9.6a.47.47 0 01-.75-.43V86.7a9.19 9.19 0 015.11-8.84l16.63-9.6a.47.47 0 01.74.43v19.2a9.19 9.19 0 01-5.11 8.84zm-15.06 53.45l16.63 9.6a.46.46 0 010 .85l-16.63 9.61a9.19 9.19 0 01-10.2 0L459 160.63a.46.46 0 010-.85l16.63-9.6a9.15 9.15 0 0110.24 0zm-30.37 67.29v-19.2a.47.47 0 01.74-.43l16.63 9.6a9.18 9.18 0 015.1 8.84v19.2a.46.46 0 01-.74.43l-16.63-9.6a9.18 9.18 0 01-5.1-8.84zm17.37-72.17l-16.63 9.6a.47.47 0 01-.74-.43v-19.2a9.18 9.18 0 015.1-8.84l16.63-9.6a.46.46 0 01.74.43v19.2a9.18 9.18 0 01-5.1 8.84zm5.1 57.78a.46.46 0 01-.74.42l-16.63-9.6a9.16 9.16 0 01-5.1-8.83v-19.2a.46.46 0 01.74-.43l16.63 9.6a9.16 9.16 0 015.1 8.83zm0-97.22a.46.46 0 01-.74.42l-16.63-9.59a9.18 9.18 0 01-5.1-8.84v-19.2a.46.46 0 01.74-.43l16.63 9.6A9.18 9.18 0 01478 86.7zm-20.16-4.33l16.62 9.6a.46.46 0 010 .85l-16.63 9.61a9.21 9.21 0 01-10.21 0L431 112a.46.46 0 010-.85l16.62-9.6a9.17 9.17 0 0110.19.02zm-13 24.9a9.17 9.17 0 015.1 8.84v19.2a.47.47 0 01-.75.42l-16.62-9.6a9.16 9.16 0 01-5.1-8.83v-19.2a.46.46 0 01.74-.43zm-12.27 48.61l16.63-9.6a.46.46 0 01.74.43v19.2a9.17 9.17 0 01-5.1 8.83l-16.63 9.6a.46.46 0 01-.74-.42v-19.21a9.16 9.16 0 015.1-8.83zm-5.1 41.24a9.18 9.18 0 015.1-8.84l16.63-9.6a.47.47 0 01.74.43v19.2a9.2 9.2 0 01-5.1 8.84L428.18 236a.46.46 0 01-.74-.43zm2.3-66.14l16.63 9.6a.46.46 0 010 .85l-16.63 9.6a9.15 9.15 0 01-10.2 0l-16.63-9.6a.46.46 0 010-.85l16.63-9.6a9.15 9.15 0 0110.2 0zm-13 24.9a9.16 9.16 0 015.1 8.83v19.21a.46.46 0 01-.74.42l-16.63-9.6a9.17 9.17 0 01-5.1-8.83v-19.2a.46.46 0 01.74-.43zm-17.37 23.23a.47.47 0 01.74-.43l16.63 9.6a9.18 9.18 0 015.1 8.84v19.2a.46.46 0 01-.74.43l-16.63-9.6a9.2 9.2 0 01-5.1-8.84zm0 66.62a9.2 9.2 0 015.1-8.84l16.63-9.6a.47.47 0 01.74.43v19.2a9.18 9.18 0 01-5.1 8.84l-16.62 9.6a.47.47 0 01-.75-.43v-19.2zm33.17 10a9.18 9.18 0 01-5.1-8.84v-19.2a.47.47 0 01.74-.43l16.63 9.6a9.2 9.2 0 015.1 8.84v19.2a.47.47 0 01-.75.43zm15.06-23.71l-16.6-9.57a.47.47 0 010-.86l16.62-9.6a9.21 9.21 0 0110.21 0l16.62 9.6a.47.47 0 010 .86l-16.63 9.6a9.21 9.21 0 01-10.22 0zm28.07 16.2L459 257.85a.47.47 0 010-.86l16.63-9.6a9.19 9.19 0 0110.2 0L502.5 257a.47.47 0 010 .86l-16.63 9.6a9.15 9.15 0 01-10.2-.01zm29.62-15.3l-16.62-9.6a9.17 9.17 0 01-5.11-8.83v-19.2a.46.46 0 01.74-.43l16.63 9.6a9.16 9.16 0 015.11 8.83v19.21a.47.47 0 01-.75.45zm-1.56-33.31l-16.63-9.61a.46.46 0 010-.85l16.63-9.6a9.15 9.15 0 0110.2 0l16.63 9.6a.46.46 0 010 .85l-16.63 9.6a9.15 9.15 0 01-10.2.04zm41.06-41.1a9.17 9.17 0 01-5.1-8.83v-19.2a.46.46 0 01.74-.43l16.63 9.6a9.16 9.16 0 015.1 8.83v19.21a.46.46 0 01-.74.42zm-5.1-39.43V119.1a9.18 9.18 0 015.1-8.83l16.63-9.6a.46.46 0 01.74.43v19.2a9.16 9.16 0 01-5.1 8.83l-16.62 9.6a.47.47 0 01-.75-.42zm22.47-50.42a9.18 9.18 0 01-5.1 8.84l-16.62 9.6a.47.47 0 01-.75-.43V86.7a9.2 9.2 0 015.1-8.84l16.63-9.6a.47.47 0 01.74.43v19.2zm-3.53-24.47L542 73a9.15 9.15 0 01-10.2 0l-16.64-9.6a.47.47 0 010-.86L531.8 53a9.19 9.19 0 0110.2 0l16.62 9.6a.47.47 0 01.01.82zm-44.7-26.66l16.63 9.6a.47.47 0 010 .86l-16.63 9.6a9.19 9.19 0 01-10.2 0l-16.63-9.6a.47.47 0 010-.86l16.63-9.6a9.15 9.15 0 0110.2.03zm-13-4.84l-16.62 9.6a.46.46 0 01-.74-.43V21.89a9.18 9.18 0 015.1-8.84l16.63-9.6a.47.47 0 01.74.43v19.2a9.19 9.19 0 01-5.11 8.84zM485.87 53l16.63 9.6a.47.47 0 010 .86L485.87 73a9.15 9.15 0 01-10.2 0L459 63.42a.47.47 0 010-.86L475.67 53a9.19 9.19 0 0110.2 0zm-13-4.84l-16.63 9.6a.46.46 0 01-.74-.43V38.09a9.16 9.16 0 015.1-8.83l16.63-9.61a.47.47 0 01.74.44v19.19a9.17 9.17 0 01-5.1 8.84zm-23.7-77.07a.46.46 0 01.74.43v19.2a9.16 9.16 0 01-5.1 8.83l-16.63 9.6a.46.46 0 01-.74-.42v-19.25a9.16 9.16 0 015.1-8.83zm-21.73 49a.47.47 0 01.74-.43l16.63 9.6a9.18 9.18 0 015.1 8.84v19.2a.47.47 0 01-.75.43l-16.62-9.6a9.18 9.18 0 01-5.1-8.84zm0 32.41a.46.46 0 01.74-.43l16.63 9.6a9.16 9.16 0 015.1 8.83v19.2a.47.47 0 01-.75.42l-16.62-9.6a9.16 9.16 0 01-5.1-8.83zm2.3 32.88L446.37 95a.46.46 0 010 .85l-16.63 9.6a9.15 9.15 0 01-10.2 0l-16.63-9.6a.46.46 0 010-.85l16.63-9.6a9.15 9.15 0 0110.2-.03zm-7.9-13.68a9.16 9.16 0 01-5.1 8.83l-16.62 9.6a.47.47 0 01-.75-.42V70.49a9.17 9.17 0 015.1-8.83l16.63-9.6a.46.46 0 01.74.43v19.2zm-21.73 29l16.63 9.6a9.16 9.16 0 015.1 8.83v19.21a.46.46 0 01-.74.42l-16.63-9.6a9.17 9.17 0 01-5.1-8.83V101.1a.46.46 0 01.74-.43zm1.57 33.3l16.62 9.6a.47.47 0 010 .86L401.68 154a9.15 9.15 0 01-10.2 0l-16.64-9.6a.47.47 0 010-.86l16.63-9.6a9.17 9.17 0 0110.21.06zm-13-4.84l-16.63 9.6a.46.46 0 01-.74-.42V119.1a9.16 9.16 0 015.1-8.83l16.63-9.6a.46.46 0 01.74.43v19.2a9.16 9.16 0 01-5.1 8.83zm-15.07 21.05l16.63 9.6a.46.46 0 010 .85l-16.63 9.6a9.15 9.15 0 01-10.2 0l-16.63-9.6a.46.46 0 010-.85l16.63-9.6a9.15 9.15 0 0110.2-.03zm-13 92.37L344 252.15a.47.47 0 01-.75-.42v-19.21a9.16 9.16 0 015.11-8.83l16.63-9.6a.46.46 0 01.74.43v19.2a9.17 9.17 0 01-5.11 8.83zm-40.33 29.74l16.63-9.6a.47.47 0 01.74.43v19.2a9.18 9.18 0 01-5.1 8.84l-16.63 9.6a.46.46 0 01-.74-.43v-19.2a9.18 9.18 0 015.1-8.84zm-5.1 41.24a9.16 9.16 0 015.1-8.83l16.63-9.6a.46.46 0 01.74.43v19.2a9.16 9.16 0 01-5.1 8.83l-16.63 9.6a.46.46 0 01-.74-.42zm21.73-61.38l-16.63-9.6a9.17 9.17 0 01-5.1-8.84v-19.2a.47.47 0 01.74-.43l16.63 9.6a9.18 9.18 0 015.1 8.84v19.2a.46.46 0 01-.74.4zm-1.56-33.31l-16.63-9.6a.47.47 0 010-.86l16.63-9.6a9.19 9.19 0 0110.2 0l16.63 9.6a.47.47 0 010 .86l-16.63 9.6a9.15 9.15 0 01-10.2-.03zm-20.17-49.97v-19.2a.47.47 0 01.74-.43l16.63 9.6a9.18 9.18 0 015.1 8.84v19.2a.46.46 0 01-.74.43l-16.63-9.6a9.18 9.18 0 01-5.1-8.84zm0-32.4v-19.2a.46.46 0 01.74-.43l16.63 9.6a9.16 9.16 0 015.1 8.83v19.21a.46.46 0 01-.74.42l-16.63-9.6a9.16 9.16 0 01-5.1-8.83zm49.79 67l-16.62-9.6a9.18 9.18 0 01-5.11-8.84v-19.15a.47.47 0 01.74-.44l16.63 9.61a9.16 9.16 0 015.11 8.83v19.21a.47.47 0 01-.72.42zm-4.36-58.21L344 154.93a.47.47 0 01-.75-.42v-19.2a9.18 9.18 0 015.11-8.84l16.63-9.6a.46.46 0 01.74.43v19.2a9.16 9.16 0 01-5.12 8.83zm-28.06-48.6l-16.63 9.59a.46.46 0 01-.74-.42V86.7a9.18 9.18 0 015.1-8.84l16.63-9.6a.46.46 0 01.74.43v19.2a9.18 9.18 0 01-5.1 8.84zm-15.06 85.85l16.62 9.6a.47.47 0 010 .86l-16.63 9.6a9.21 9.21 0 01-10.21 0l-16.62-9.6a.47.47 0 010-.86l16.62-9.6a9.21 9.21 0 0110.22.04zm-7.9 98.55v19.2a.47.47 0 01-.75.43l-16.62-9.6a9.18 9.18 0 01-5.1-8.84v-19.2a.47.47 0 01.74-.43l16.63 9.6a9.2 9.2 0 015.1 8.88zm0 32.4v19.21a.47.47 0 01-.75.42l-16.62-9.6a9.16 9.16 0 01-5.1-8.83v-19.2a.46.46 0 01.74-.43l16.63 9.6a9.17 9.17 0 015.1 8.87zm-30.37-62.28l-16.63-9.61a.46.46 0 010-.85l16.63-9.6a9.15 9.15 0 0110.2 0l16.63 9.6a.46.46 0 010 .85l-16.63 9.61a9.19 9.19 0 01-10.2.04zm-30.86-8.7l-16.63 9.6a.46.46 0 01-.74-.43v-19.2a9.18 9.18 0 015.1-8.84l16.63-9.6a.47.47 0 01.74.43v19.2a9.17 9.17 0 01-5.1 8.84zm2.8-39.91l-16.64-9.6a.47.47 0 010-.86l16.62-9.6a9.19 9.19 0 0110.2 0l16.62 9.6a.47.47 0 010 .86l-16.63 9.6a9.19 9.19 0 01-10.17.04zm-2.8-57.31l-16.63 9.6a.46.46 0 01-.74-.42V135.3a9.16 9.16 0 015.1-8.83l16.63-9.6a.46.46 0 01.74.43v19.2a9.16 9.16 0 01-5.1 8.83zM231 167.71a9.18 9.18 0 015.1-8.84l16.63-9.6a.47.47 0 01.74.43v19.2a9.18 9.18 0 01-5.1 8.84l-16.63 9.6a.46.46 0 01-.74-.43v-19.2zm50.53-32.41v19.21a.46.46 0 01-.74.42l-16.63-9.6a9.17 9.17 0 01-5.1-8.83v-19.2a.46.46 0 01.74-.43l16.63 9.6a9.16 9.16 0 015.09 8.83zm-22.47 14.4a.47.47 0 01.74-.43l16.63 9.6a9.18 9.18 0 015.1 8.84v19.2a.46.46 0 01-.74.43l-16.63-9.6a9.2 9.2 0 01-5.1-8.84zm0 66.62a9.2 9.2 0 015.1-8.84l16.63-9.6a.46.46 0 01.74.43v19.2a9.18 9.18 0 01-5.1 8.84L259.8 236a.47.47 0 01-.75-.43v-19.2zm33.17 10a9.18 9.18 0 01-5.1-8.84v-19.2a.46.46 0 01.74-.43l16.63 9.6a9.2 9.2 0 015.1 8.84v19.2a.47.47 0 01-.75.43zm0-99.88l16.63-9.6a.46.46 0 01.74.43v19.2a9.17 9.17 0 01-5.1 8.83l-16.63 9.6a.46.46 0 01-.74-.42V135.3a9.16 9.16 0 015.1-8.83zm0 32.4l16.63-9.6a.47.47 0 01.74.43v19.2a9.2 9.2 0 01-5.1 8.84l-16.63 9.6a.46.46 0 01-.74-.43v-19.2a9.18 9.18 0 015.1-8.84zm17.37-53a.47.47 0 01-.75.42l-16.62-9.6a9.16 9.16 0 01-5.1-8.83V68.69a.46.46 0 01.74-.43l16.63 9.6a9.17 9.17 0 015.1 8.83zm-20.17-4.33l16.63 9.6a.46.46 0 010 .85l-16.63 9.6a9.15 9.15 0 01-10.2 0L262.59 112a.46.46 0 010-.85l16.63-9.6a9.15 9.15 0 0110.2.02zm-28.07-16.15L278 95a.47.47 0 010 .86l-16.63 9.6a9.15 9.15 0 01-10.2 0l-16.64-9.6a.47.47 0 010-.86l16.63-9.6a9.19 9.19 0 0110.2-.04zm-13-4.84l-16.63 9.6a.46.46 0 01-.74-.42V70.49a9.16 9.16 0 015.1-8.83l16.63-9.61a.47.47 0 01.74.44v19.19a9.17 9.17 0 01-5.1 8.84zm2.8 186.93l-16.63-9.6a.47.47 0 010-.86l16.62-9.6a9.19 9.19 0 0110.2 0L278 257a.47.47 0 010 .86l-16.63 9.6a9.15 9.15 0 01-10.21-.01zm7.89 13.68a9.2 9.2 0 015.1-8.84l16.63-9.6a.47.47 0 01.74.43v19.2a9.18 9.18 0 01-5.1 8.84l-16.62 9.6a.47.47 0 01-.75-.43v-19.2zm0 32.4a9.17 9.17 0 015.1-8.83l16.63-9.6a.46.46 0 01.74.43v19.2a9.16 9.16 0 01-5.1 8.83l-16.62 9.6a.47.47 0 01-.75-.42v-19.21zm3.54 24.47l16.63-9.6a9.15 9.15 0 0110.2 0l16.63 9.6a.46.46 0 010 .85l-16.63 9.6a9.15 9.15 0 01-10.2 0l-16.63-9.6a.46.46 0 010-.85zm44.69-70.56l-16.63-9.6a.47.47 0 010-.86l16.62-9.6a9.21 9.21 0 0110.21 0l16.62 9.6a.47.47 0 010 .86l-16.63 9.6a9.17 9.17 0 01-10.19.01zm28.07 81l-16.63-9.6a.46.46 0 010-.85l16.63-9.6a9.15 9.15 0 0110.2 0l16.63 9.6a.46.46 0 010 .85l-16.63 9.6a9.15 9.15 0 01-10.2.02zm13-24.9a9.16 9.16 0 01-5.11-8.83v-19.2a.46.46 0 01.74-.43l16.63 9.6a9.16 9.16 0 015.11 8.83v19.21a.47.47 0 01-.75.42zm17.37-23.23a.47.47 0 01-.75.43l-16.62-9.6a9.19 9.19 0 01-5.11-8.84v-19.2a.47.47 0 01.74-.43l16.63 9.6a9.19 9.19 0 015.11 8.84zm-2.31-32.88l-16.63-9.6a.47.47 0 010-.86l16.63-9.6a9.19 9.19 0 0110.2 0l16.63 9.6a.47.47 0 010 .86l-16.63 9.6a9.15 9.15 0 01-10.2.02zm28.07 48.61l-16.64-9.6a.47.47 0 010-.86l16.63-9.6a9.19 9.19 0 0110.2 0l16.62 9.6a.47.47 0 010 .86l-16.63 9.6a9.15 9.15 0 01-10.18.02zm7.89 13.68a9.2 9.2 0 015.1-8.84l16.63-9.6a.47.47 0 01.74.43v19.2a9.18 9.18 0 01-5.1 8.84l-16.62 9.6a.47.47 0 01-.75-.43v-19.2zm0 32.41a9.19 9.19 0 015.1-8.84l16.63-9.6a.46.46 0 01.74.43v19.2a9.16 9.16 0 01-5.1 8.83l-16.62 9.6a.47.47 0 01-.75-.42v-19.2zm3.54 24.47l16.63-9.6a9.15 9.15 0 0110.2 0l16.63 9.6a.46.46 0 010 .85l-16.63 9.6a9.15 9.15 0 01-10.2 0l-16.63-9.6a.46.46 0 010-.83zm44.69-70.56l-16.6-9.58a.47.47 0 010-.86l16.6-9.6a9.21 9.21 0 0110.21 0l16.62 9.6a.47.47 0 010 .86l-16.63 9.6a9.17 9.17 0 01-10.2 0zm28.07 81L459 387.47a.46.46 0 010-.85l16.63-9.6a9.15 9.15 0 0110.2 0l16.63 9.6a.46.46 0 010 .85l-16.63 9.6a9.15 9.15 0 01-10.16 0zm13-24.9a9.16 9.16 0 01-5.11-8.83v-19.2a.46.46 0 01.74-.43l16.63 9.6a9.18 9.18 0 015.11 8.84v19.2a.47.47 0 01-.75.42zm17.33-23.2a.47.47 0 01-.75.43l-16.62-9.6a9.19 9.19 0 01-5.11-8.84v-19.2a.47.47 0 01.74-.43l16.63 9.6a9.19 9.19 0 015.11 8.84zm-2.31-32.88l-16.63-9.6a.47.47 0 010-.86l16.67-9.6a9.15 9.15 0 0110.2 0l16.63 9.59a.47.47 0 010 .86l-16.63 9.6a9.15 9.15 0 01-10.2.01zm28.07-16.2l-16.64-9.6a.47.47 0 010-.86l16.63-9.6a9.19 9.19 0 0110.2 0l16.62 9.6a.47.47 0 010 .86l-16.57 9.6a9.15 9.15 0 01-10.2 0zm28.06-81l-16.63-9.61a.46.46 0 010-.85l16.63-9.6a9.15 9.15 0 0110.2 0l16.63 9.6a.46.46 0 010 .85l-16.63 9.6a9.15 9.15 0 01-10.16-.01zm13 37.25l16.63-9.6a.47.47 0 01.74.43v19.2a9.17 9.17 0 01-5.1 8.84l-16.63 9.6a.46.46 0 01-.74-.43v-19.2a9.16 9.16 0 015.1-8.83zm17.37-22.37a9.17 9.17 0 01-5.1 8.83l-16.63 9.6a.46.46 0 01-.74-.42v-19.23a9.17 9.17 0 015.1-8.83l16.63-9.6a.46.46 0 01.74.43v19.2zm-2.31 66.14l-16.63-9.6a.47.47 0 010-.86l16.62-9.6a9.21 9.21 0 0110.21 0l16.62 9.6a.47.47 0 010 .86l-16.63 9.6a9.17 9.17 0 01-10.15-.02zm2.31-96.74a.47.47 0 01-.75.42l-16.62-9.6a9.16 9.16 0 01-5.1-8.83v-19.2a.46.46 0 01.74-.43l16.63 9.6a9.17 9.17 0 015.1 8.84zM562.16 57.29a.46.46 0 01-.74.43l-16.63-9.6a9.19 9.19 0 01-5.1-8.84V20.09a.47.47 0 01.74-.44l16.63 9.61a9.16 9.16 0 015.1 8.83zM542 8.21a9.15 9.15 0 01-10.2 0l-16.64-9.6a.47.47 0 010-.86l16.63-9.6a9.19 9.19 0 0110.2 0l16.62 9.6a.47.47 0 010 .86L542 8.21zm-7.9-96.74a.46.46 0 01-.74.42l-16.63-9.6a9.16 9.16 0 01-5.1-8.83v-19.2a.46.46 0 01.74-.43l16.63 9.6a9.17 9.17 0 015.1 8.84zm-20.17-4.33l16.63 9.6a.46.46 0 010 .85l-16.63 9.6a9.15 9.15 0 01-10.2 0l-16.63-9.6a.46.46 0 010-.85l16.63-9.6a9.15 9.15 0 0110.2 0zm-13 24.9a9.17 9.17 0 015.07 8.83v19.21a.47.47 0 01-.75.42l-16.62-9.6a9.16 9.16 0 01-5.1-8.83v-19.2a.46.46 0 01.73-.43zm-17.36 23.23a.46.46 0 01.73-.43l16.63 9.6a9.16 9.16 0 015.07 8.84v19.2a.47.47 0 01-.75.43l-16.62-9.6a9.17 9.17 0 01-5.1-8.84zm2.3 32.88l16.63 9.6a.47.47 0 010 .86l-16.63 9.6a9.15 9.15 0 01-10.2 0L459-1.39a.47.47 0 010-.86l16.63-9.6a9.19 9.19 0 0110.24 0zm-13-37.25l-16.63 9.6a.46.46 0 01-.74-.42v-19.21a9.17 9.17 0 015.1-8.87l16.63-9.6a.46.46 0 01.74.43v19.2a9.16 9.16 0 01-5.1 8.87zm1.57-33.31l-16.63 9.6a9.17 9.17 0 01-10.21 0l-16.6-9.6a.46.46 0 010-.85l16.62-9.6a9.17 9.17 0 0110.21 0l16.62 9.6a.46.46 0 01-.01.85zm-29.63-15.3l-16.63 9.6a.46.46 0 01-.74-.42v-19.2a9.17 9.17 0 015.1-8.84l16.63-9.6a.46.46 0 01.74.43v19.2a9.16 9.16 0 01-5.1 8.83zm-28.07 78.36a9.16 9.16 0 015.1 8.83v19.2a.46.46 0 01-.74.43l-16.63-9.6a9.19 9.19 0 01-5.1-8.84v-19.19a.47.47 0 01.74-.44zm-15.06 23.7L418.3 14a.47.47 0 010 .86l-16.63 9.6a9.15 9.15 0 01-10.2 0l-16.64-9.6a.47.47 0 010-.86l16.63-9.6a9.19 9.19 0 0110.22-.05zm-13 24.9a9.18 9.18 0 015.1 8.84v19.2a.46.46 0 01-.74.43l-16.63-9.6a9.18 9.18 0 01-5.1-8.84v-19.2a.47.47 0 01.74-.43zm-17.37 23.24a.46.46 0 01.74-.43l16.63 9.6a9.16 9.16 0 015.1 8.83V89.7a.46.46 0 01-.74.42l-16.63-9.6a9.16 9.16 0 01-5.1-8.83zm2.3 32.88L390.24 95a.46.46 0 010 .85l-16.63 9.6a9.15 9.15 0 01-10.2 0l-16.63-9.6a.46.46 0 010-.85l16.63-9.6a9.15 9.15 0 0110.2-.03zm-13-37.25L344 57.72a.47.47 0 01-.75-.43v-19.2a9.19 9.19 0 015.11-8.84l16.64-9.6a.47.47 0 01.74.43v19.2a9.19 9.19 0 01-5.13 8.84zm1.57-33.31l-16.63 9.6a9.15 9.15 0 01-10.2 0l-16.63-9.6a.47.47 0 010-.86l16.63-9.6a9.19 9.19 0 0110.2 0L362.18 14a.47.47 0 010 .81zM332.55-.49l-16.63 9.6a.46.46 0 01-.74-.43v-19.2a9.16 9.16 0 015.1-8.83L336.91-29a.47.47 0 01.74.44v19.23a9.17 9.17 0 01-5.1 8.84zm-16.63 20.14l16.63 9.6a9.17 9.17 0 015.1 8.84v19.2a.46.46 0 01-.74.42l-16.63-9.6a9.16 9.16 0 01-5.1-8.83v-19.2a.46.46 0 01.74-.43zM317.49 53l16.62 9.6a.46.46 0 010 .85L317.49 73a9.21 9.21 0 01-10.21 0l-16.63-9.61a.46.46 0 010-.85L307.28 53a9.17 9.17 0 0110.21 0zM287.12 3.88a.46.46 0 01.74-.43l16.63 9.6a9.16 9.16 0 015.1 8.83v19.21a.47.47 0 01-.75.42l-16.62-9.6a9.16 9.16 0 01-5.1-8.83zm2.3 32.88l16.63 9.6a.46.46 0 010 .85l-16.63 9.6a9.15 9.15 0 01-10.2 0l-16.63-9.6a.46.46 0 010-.85l16.63-9.6a9.15 9.15 0 0110.2 0zm-7.9-76.69a.46.46 0 01-.74.43l-16.63-9.6a9.19 9.19 0 01-5.1-8.84v-19.2a.47.47 0 01.74-.43L276.42-68a9.18 9.18 0 015.1 8.84zm-20.16-4.33l16.64 9.6a.47.47 0 010 .86l-16.63 9.6a9.15 9.15 0 01-10.2 0l-16.64-9.6a.47.47 0 010-.86l16.63-9.6a9.19 9.19 0 0110.2 0zm-13 24.9a9.18 9.18 0 015.1 8.84v19.2a.47.47 0 01-.74.43l-16.63-9.6A9.18 9.18 0 01231-9.33v-19.2a.47.47 0 01.74-.43zM231 3.88a.46.46 0 01.74-.43l16.63 9.6a9.16 9.16 0 015.1 8.83v19.21a.46.46 0 01-.74.42l-16.63-9.6a9.16 9.16 0 01-5.1-8.83zm2.3 32.88l16.63 9.6a.46.46 0 010 .85l-16.63 9.6a9.15 9.15 0 01-10.2 0l-16.63-9.6a.46.46 0 010-.85l16.63-9.6a9.15 9.15 0 0110.19 0zm-13-37.25l-16.62 9.6a.47.47 0 01-.75-.43v-19.2a9.19 9.19 0 015.07-8.84L224.66-29a.47.47 0 01.74.43v19.2a9.19 9.19 0 01-5.11 8.88zm1.57-33.31l-16.63 9.6a9.15 9.15 0 01-10.2 0l-16.64-9.6a.47.47 0 010-.86l16.6-9.6a9.19 9.19 0 0110.2 0l16.63 9.6a.47.47 0 01.03.86zm-29.64-15.3l-16.63 9.6a.46.46 0 01-.74-.43v-19.2A9.18 9.18 0 01180-68l16.63-9.6a.47.47 0 01.74.43v19.2a9.17 9.17 0 01-5.14 8.87zM175.6-29l16.63 9.6a9.17 9.17 0 015.1 8.84V8.68a.46.46 0 01-.74.42L180-.5a9.16 9.16 0 01-5.1-8.83v-19.2a.46.46 0 01.7-.47zm1.57 33.31L193.79 14a.46.46 0 010 .85l-16.63 9.61a9.17 9.17 0 01-10.21 0l-16.63-9.6a.46.46 0 010-.85L167 4.35a9.17 9.17 0 0110.17 0zm-13 24.9a9.17 9.17 0 015.1 8.83v19.25a.47.47 0 01-.75.42l-16.62-9.6a9.16 9.16 0 01-5.1-8.83v-19.2a.46.46 0 01.74-.43zM149.1 53l16.63 9.6a.46.46 0 010 .85L149.1 73a9.15 9.15 0 01-10.2 0l-16.63-9.6a.46.46 0 010-.85L138.9 53a9.15 9.15 0 0110.2 0zM144 82.42l28.06-16.2 25.27 14.58v32.41l28.07 16.2v29.18l-28.07 16.2v32.41l-25.27 14.58-28.06-16.2-28.06 16.2-25.27-14.59v-32.4L62.6 158.58v-29.17l28.07-16.21V80.8l25.27-14.59zm20.17 241.14l-16.63 9.6a.46.46 0 01-.74-.42v-19.21a9.16 9.16 0 015.1-8.83l16.63-9.61a.47.47 0 01.74.44v19.19a9.19 9.19 0 01-5.1 8.84zm-28.07 16.2l-16.62 9.6a.47.47 0 01-.75-.42v-19.21a9.17 9.17 0 015.1-8.83l16.63-9.6a.46.46 0 01.74.43v19.2a9.16 9.16 0 01-5.1 8.83zm-73.5 72.18v-19.2a.46.46 0 01.74-.43l16.66 9.6a9.15 9.15 0 015.1 8.84V430a.47.47 0 01-.75.42l-16.62-9.6a9.16 9.16 0 01-5.13-8.88zm-10.69 8.83l-16.63 9.6a.46.46 0 01-.74-.42v-19.2a9.17 9.17 0 015.1-8.84l16.63-9.6a.46.46 0 01.74.43v19.2a9.16 9.16 0 01-5.1 8.83zm-73.5-89.85v-19.2a.47.47 0 01.74-.43l16.63 9.6a9.18 9.18 0 015.1 8.84v19.2a.46.46 0 01-.74.43l-16.63-9.6a9.18 9.18 0 01-5.1-8.84zm-56.13 32.41v-19.2a.46.46 0 01.74-.43l16.63 9.6a9.15 9.15 0 015.1 8.83v19.21a.46.46 0 01-.74.42l-16.62-9.6a9.16 9.16 0 01-5.11-8.83zm-10.69 8.83l-16.63 9.6a.46.46 0 01-.74-.42v-19.21a9.17 9.17 0 015.1-8.83l16.68-9.6a.46.46 0 01.74.43v19.2a9.16 9.16 0 01-5.1 8.83zm-73.5-89.85v-19.2a.47.47 0 01.74-.43l16.63 9.6a9.18 9.18 0 015.1 8.84v19.2a.46.46 0 01-.74.43l-16.63-9.6a9.18 9.18 0 01-5.1-8.84zM-218 314.72v-19.2a.46.46 0 01.74-.43l16.63 9.6a9.16 9.16 0 015.1 8.83v19.21a.46.46 0 01-.74.42l-16.62-9.6a9.16 9.16 0 01-5.11-8.83zm-10.69 8.83l-16.63 9.6a.46.46 0 01-.74-.42v-19.21a9.16 9.16 0 015.1-8.83l16.63-9.6a.46.46 0 01.74.43v19.2a9.16 9.16 0 01-5.1 8.83zm-28.06-145.82l-16.63 9.6a.46.46 0 01-.74-.43v-19.2a9.18 9.18 0 015.1-8.84l16.63-9.6a.47.47 0 01.74.43v19.2a9.2 9.2 0 01-5.1 8.84zm-13.83 14.44l16.62-9.6a9.19 9.19 0 0110.2 0l16.63 9.6a.47.47 0 010 .86l-16.64 9.6a9.19 9.19 0 01-10.2 0l-16.63-9.6a.47.47 0 01-.02-.86zM-241 77.85l16.63-9.6a.46.46 0 01.74.43v19.2a9.16 9.16 0 01-5.1 8.83l-16.63 9.6a.46.46 0 01-.74-.42v-19.2a9.17 9.17 0 015.1-8.84zm23-87.19v-19.2a.47.47 0 01.74-.43l16.63 9.6a9.19 9.19 0 015.11 8.84v19.2a.47.47 0 01-.75.43l-16.66-9.6A9.19 9.19 0 01-218-9.34zm45.44 41.25l-16.63 9.59a.46.46 0 01-.74-.42v-19.2a9.17 9.17 0 015.1-8.84l16.63-9.6a.46.46 0 01.74.43v19.2a9.16 9.16 0 01-5.1 8.83zm-15.07 21l16.63 9.6a.47.47 0 010 .86L-187.67 73a9.19 9.19 0 01-10.2 0l-16.63-9.6a.47.47 0 010-.86l16.63-9.6a9.19 9.19 0 0110.2.06zm58.93-72.31l16.59-9.6a.47.47 0 01.74.44v19.22a9.19 9.19 0 01-5.1 8.84l-16.63 9.6a.46.46 0 01-.74-.43v-19.2a9.16 9.16 0 015.1-8.83zm0 32.4l16.63-9.6a.46.46 0 01.74.43v19.2a9.2 9.2 0 01-5.1 8.84l-16.67 9.63a.46.46 0 01-.74-.42v-19.2a9.17 9.17 0 015.1-8.88zm-4.36 39l16.63 9.6a9.18 9.18 0 015.1 8.83v19.26a.47.47 0 01-.75.42l-16.62-9.6a9.16 9.16 0 01-5.1-8.83v-19.2a.46.46 0 01.7-.43zm55.38-12.78V20.07a.47.47 0 01.74-.43l16.63 9.6a9.19 9.19 0 015.11 8.84v19.2a.47.47 0 01-.75.43l-16.62-9.6a9.19 9.19 0 01-5.15-8.84zm45.44 41.25l-16.63 9.59a.46.46 0 01-.74-.42V70.49a9.18 9.18 0 015.1-8.84l16.63-9.6a.46.46 0 01.74.43v19.2a9.18 9.18 0 01-5.1 8.84zm-15.07 21l16.63 9.6a.47.47 0 010 .86l-16.63 9.6a9.15 9.15 0 01-10.2 0L-74.18 112a.47.47 0 010-.86l16.63-9.6a9.19 9.19 0 0110.2.02zm58.89-72.22l16.63-9.61a.47.47 0 01.74.44v19.19a9.19 9.19 0 01-5.1 8.84l-16.63 9.6a.46.46 0 01-.74-.42V38.08a9.16 9.16 0 015.1-8.83zm0 32.4l16.63-9.6a.46.46 0 01.74.43v19.2a9.2 9.2 0 01-5.1 8.84L7.22 90.11a.46.46 0 01-.74-.42v-19.2a9.18 9.18 0 015.1-8.84zm-4.36 39l16.63 9.6A9.19 9.19 0 0129 119.1v19.2a.47.47 0 01-.75.42l-16.62-9.6a9.16 9.16 0 01-5.1-8.83v-19.2a.46.46 0 01.69-.43zM108 291.15l-16.63 9.6a.46.46 0 01-.74-.42v-19.2a9.17 9.17 0 015.1-8.84l16.63-9.6a.46.46 0 01.74.43v19.2a9.16 9.16 0 01-5.1 8.83zm4.36-39l-16.63-9.6a9.16 9.16 0 01-5.1-8.83v-19.2a.46.46 0 01.74-.43l16.63 9.6a9.17 9.17 0 015.1 8.84v19.2a.46.46 0 01-.7.41zM93 247.39l16.6 9.61a.46.46 0 010 .85L93 267.44a9.15 9.15 0 01-10.2 0l-16.63-9.6a.46.46 0 010-.85l16.63-9.6a9.15 9.15 0 0110.2 0zM67.71 353.3l16.63-9.6a.46.46 0 01.74.43v19.2a9.16 9.16 0 01-5.1 8.84l-16.62 9.59a.47.47 0 01-.75-.42v-19.2a9.19 9.19 0 015.11-8.84zm17.36-22.38a9.15 9.15 0 01-5.1 8.84l-16.62 9.6a.47.47 0 01-.75-.42v-19.21a9.16 9.16 0 015.11-8.83l16.63-9.61a.47.47 0 01.74.44v19.19zm-.74-30.17l-16.62-9.6a9.16 9.16 0 01-5.11-8.83v-19.2a.46.46 0 01.74-.43l16.66 9.6a9.16 9.16 0 015.11 8.83v19.21a.47.47 0 01-.78.42zM62.6 185.1v-19.2a.46.46 0 01.74-.43l16.66 9.6a9.19 9.19 0 015.11 8.84v19.2a.47.47 0 01-.75.42l-16.62-9.59a9.19 9.19 0 01-5.14-8.84zm0 13.21a.46.46 0 01.74-.43l16.66 9.6a9.16 9.16 0 015.11 8.83v19.21a.47.47 0 01-.75.42l-16.62-9.6a9.16 9.16 0 01-5.11-8.83zm2.31 32.88l16.63 9.6a.47.47 0 010 .86l-16.63 9.6a9.15 9.15 0 01-10.2 0l-16.63-9.6a.47.47 0 010-.86l16.63-9.6a9.17 9.17 0 0110.2 0zM57 329.73v19.21a.46.46 0 01-.74.42l-16.63-9.6a9.17 9.17 0 01-5.1-8.84v-19.19a.47.47 0 01.74-.44l16.63 9.61a9.16 9.16 0 015.1 8.83zm0 32.41v19.2a.46.46 0 01-.74.42l-16.63-9.59a9.18 9.18 0 01-5.1-8.84v-19.2a.46.46 0 01.74-.43l16.63 9.6a9.18 9.18 0 015.1 8.84zm-30.36-62.29L10 290.25a.47.47 0 010-.86l16.62-9.6a9.21 9.21 0 0110.21 0l16.62 9.6a.47.47 0 010 .86l-16.63 9.6a9.17 9.17 0 01-10.18 0zm-30.86-8.7l-16.62 9.6a.47.47 0 01-.75-.42v-19.21a9.17 9.17 0 015.1-8.83l16.63-9.6a.46.46 0 01.74.43v19.2a9.16 9.16 0 01-5.1 8.83zm2.8-39.91l-16.58-9.6a.47.47 0 010-.86l16.63-9.6a9.17 9.17 0 0110.2 0l16.63 9.6a.47.47 0 010 .86l-16.63 9.6a9.15 9.15 0 01-10.25 0zm-2.8-57.3l-16.62 9.59a.47.47 0 01-.75-.42v-19.2a9.18 9.18 0 015.1-8.84l16.63-9.6a.46.46 0 01.74.43v19.2a9.18 9.18 0 01-5.1 8.84zm-17.37 22.37a9.17 9.17 0 015.1-8.83l16.63-9.6a.46.46 0 01.74.43v19.2a9.16 9.16 0 01-5.1 8.83l-16.62 9.6a.47.47 0 01-.75-.42v-19.21zM29 183.91v19.2a.47.47 0 01-.75.42l-16.62-9.59a9.18 9.18 0 01-5.1-8.84v-19.2a.46.46 0 01.74-.43l16.63 9.6a9.2 9.2 0 015.1 8.84zm-21.73 14l16.63 9.6a9.17 9.17 0 015.1 8.83v19.21a.47.47 0 01-.75.42l-16.62-9.6a9.16 9.16 0 01-5.1-8.83v-19.2a.46.46 0 01.69-.46zm-.74 67a9.16 9.16 0 015.1-8.83l16.63-9.61a.47.47 0 01.74.44v19.19a9.19 9.19 0 01-5.1 8.84l-16.63 9.6a.46.46 0 01-.74-.43v-19.2zm33.16 10a9.17 9.17 0 01-5.1-8.84v-19.15a.47.47 0 01.74-.44l16.63 9.61a9.16 9.16 0 015.1 8.83v19.2a.46.46 0 01-.74.43zm0-99.88l16.63-9.6a.46.46 0 01.74.43v19.2a9.18 9.18 0 01-5.1 8.84l-16.63 9.59a.46.46 0 01-.74-.42v-19.2a9.18 9.18 0 015.1-8.84zm0 32.41l16.63-9.6a.46.46 0 01.74.43v19.2a9.16 9.16 0 01-5.1 8.83l-16.63 9.6a.46.46 0 01-.74-.42v-19.17a9.16 9.16 0 015.1-8.83zM57 154.5a.47.47 0 01-.74.43l-16.63-9.6a9.18 9.18 0 01-5.1-8.84v-19.2a.47.47 0 01.74-.43l16.63 9.6a9.18 9.18 0 015.1 8.84zm-20.16-4.33l16.62 9.6a.47.47 0 010 .86l-16.63 9.6a9.21 9.21 0 01-10.21 0L10 160.63a.47.47 0 010-.86l16.62-9.6a9.17 9.17 0 0110.23 0zM8.78 134l16.63 9.6a.46.46 0 010 .85L8.78 154a9.15 9.15 0 01-10.2 0L-18 144.42a.46.46 0 010-.85L-1.42 134a9.15 9.15 0 0110.2 0zm-13-4.85l-16.62 9.6a.47.47 0 01-.75-.42V119.1a9.19 9.19 0 015.1-8.84l16.63-9.6a.46.46 0 01.74.43v19.2a9.16 9.16 0 01-5.1 8.83zm-15.06 21l16.62 9.6a.47.47 0 010 .86l-16.63 9.6a9.21 9.21 0 01-10.21 0l-16.63-9.6a.47.47 0 010-.86l16.62-9.6a9.17 9.17 0 0110.23.02zm-13 92.37l-16.63 9.6a.46.46 0 01-.74-.42v-19.2a9.17 9.17 0 015.1-8.84l16.63-9.6a.46.46 0 01.74.43v19.2a9.16 9.16 0 01-5.1 8.83zm-40.33 29.75l16.61-9.59a.46.46 0 01.73.44v19.19a9.17 9.17 0 01-5.1 8.84l-16.63 9.6a.47.47 0 01-.75-.43v-19.2a9.16 9.16 0 015.11-8.83zm0 32.4l16.63-9.6a.46.46 0 01.73.43v19.2a9.16 9.16 0 01-5.1 8.84L-77 333.15a.47.47 0 01-.75-.42v-19.2a9.18 9.18 0 015.14-8.84zM-56 252.14l-16.62-9.6c-2.91-1.68-4.46-3.73-4.94-6.66a13.58 13.58 0 01-.17-2.18v-19.19a.47.47 0 01.74-.44l16.63 9.61c2.91 1.68 4.46 3.73 4.94 6.66a13.54 13.54 0 01.17 2.17v19.21a.47.47 0 01-.75.42zm-1.56-33.31l-16.63-9.6a.51.51 0 01-.26-.31.47.47 0 01.26-.54l16.63-9.6a9.15 9.15 0 0110.2 0l16.63 9.6a.57.57 0 01.27.31.47.47 0 01-.27.54l-16.63 9.6a9.15 9.15 0 01-10.19 0zm29.63-15.3l-16.63-9.6c-2.91-1.68-4.46-3.73-4.94-6.66a13.58 13.58 0 01-.16-2.17v-19.2a.46.46 0 01.74-.43l16.63 9.6c2.91 1.68 4.46 3.73 4.94 6.66a13.58 13.58 0 01.16 2.17v19.21a.46.46 0 01-.73.42zm-4.36-58.2l-16.63 9.6a.47.47 0 01-.74-.43v-19.2a9.18 9.18 0 015.1-8.84l16.63-9.6a.47.47 0 01.74.43v19.2a9.18 9.18 0 01-5.09 8.84zM-56 68.25a.47.47 0 01.74.43v19.2a9.19 9.19 0 01-5.11 8.84l-16.63 9.6a.47.47 0 01-.75-.43v-19.2a9.19 9.19 0 015.11-8.84zm-21.74 49a.46.46 0 01.74-.43l16.63 9.6c2.91 1.68 4.46 3.73 4.94 6.66a13.58 13.58 0 01.17 2.18v19.2a.47.47 0 01-.75.42l-16.62-9.6c-2.91-1.67-4.46-3.73-4.94-6.66a13.45 13.45 0 01-.17-2.17zm0 32.41a.47.47 0 01.74-.44l16.63 9.61c2.91 1.67 4.46 3.73 4.94 6.66a13.45 13.45 0 01.17 2.17v19.21a.47.47 0 01-.75.42l-16.62-9.6c-2.91-1.68-4.46-3.73-4.94-6.66a13.58 13.58 0 01-.17-2.18zm2.31 32.87l16.63 9.6a.57.57 0 01.26.31.48.48 0 01-.26.55l-16.63 9.6a9.15 9.15 0 01-10.2 0l-16.63-9.6a.53.53 0 01-.27-.31.48.48 0 01.27-.55l16.63-9.6a9.19 9.19 0 0110.22.04zm-7.9 98.55v19.2a.46.46 0 01-.74.43l-16.63-9.6a9.17 9.17 0 01-5.1-8.84v-19.15a.47.47 0 01.74-.44l16.63 9.61a9.16 9.16 0 015.12 8.83zm0 32.41v19.2a.46.46 0 01-.74.42l-16.63-9.59a9.18 9.18 0 01-5.1-8.84v-19.2a.46.46 0 01.74-.43l16.63 9.6a9.17 9.17 0 015.12 8.88zm-30.37-62.29l-16.63-9.6a.57.57 0 01-.26-.31.48.48 0 01.27-.55l16.62-9.6a9.19 9.19 0 0110.2 0l16.63 9.6a.57.57 0 01.27.31.48.48 0 01-.26.55l-16.63 9.6a9.17 9.17 0 01-10.19.04zm-2.79 39.91l-16.63 9.6a.46.46 0 01-.74-.43v-19.2a9.16 9.16 0 015.1-8.83l16.63-9.61a.47.47 0 01.74.44v19.19a9.19 9.19 0 01-5.1 8.84zm-28.07-145.83l-16.62 9.6a.45.45 0 01-.73-.27.77.77 0 010-.15V135.3a9.17 9.17 0 015.1-8.84l16.63-9.6a.46.46 0 01.73.28.71.71 0 010 .15v19.2a9.16 9.16 0 01-5.1 8.83zm-17.37 22.38a9.16 9.16 0 015.1-8.83l16.63-9.61a.46.46 0 01.73.28.81.81 0 010 .16v19.19a9.17 9.17 0 01-5.1 8.84l-16.62 9.6a.46.46 0 01-.73-.27.78.78 0 010-.16V167.7zm3.54 24.47l16.63-9.6a9.19 9.19 0 0110.2 0l16.63 9.6a.57.57 0 01.26.31.47.47 0 01-.26.55l-16.63 9.6a9.15 9.15 0 01-10.2 0l-16.63-9.6a.57.57 0 01-.27-.31.49.49 0 01.29-.51zm46.83-59a13.58 13.58 0 01.17 2.18v19.2a.47.47 0 01-.75.42l-16.62-9.59c-2.91-1.68-4.46-3.74-4.94-6.67a13.49 13.49 0 01-.16-2.17v-19.2a.46.46 0 01.74-.43l16.63 9.6c2.92 1.67 4.49 3.72 4.95 6.65zm-22.3 16.58a.47.47 0 01.74-.44l16.63 9.61c2.9 1.67 4.45 3.73 4.93 6.66a13.45 13.45 0 01.17 2.17v19.21a.47.47 0 01-.75.42l-16.62-9.6c-2.91-1.68-4.46-3.73-4.94-6.66a13.58 13.58 0 01-.16-2.17zm0 66.61a9.18 9.18 0 015.1-8.84l16.63-9.6a.45.45 0 01.72.28.77.77 0 010 .15v19.2a9.19 9.19 0 01-5.1 8.84l-16.63 9.6a.46.46 0 01-.73-.27.81.81 0 010-.16v-19.2zm33.16 10c-2.91-1.68-4.46-3.74-4.94-6.66a13.62 13.62 0 01-.16-2.18V198.3a.47.47 0 01.74-.43l16.63 9.6c2.91 1.68 4.46 3.74 4.94 6.67a13.4 13.4 0 01.16 2.17v19.2a.46.46 0 01-.74.43zm0-99.88l16.63-9.6a.45.45 0 01.72.28.36.36 0 010 .15v19.2a9.18 9.18 0 01-5.1 8.84l-16.55 9.61a.45.45 0 01-.72-.27.77.77 0 010-.15v-19.2a9.17 9.17 0 015.1-8.84zm0 32.41l16.7-9.59a.46.46 0 01.72.28.41.41 0 010 .16v19.2a9.17 9.17 0 01-5.1 8.83l-16.63 9.6a.45.45 0 01-.72-.27.78.78 0 010-.16v-19.2a9.16 9.16 0 015.05-8.83zm17.37-53a.47.47 0 01-.74.43l-16.63-9.6a9.18 9.18 0 01-5.1-8.84V68.68a.47.47 0 01.74-.43l16.63 9.6a9.18 9.18 0 015.1 8.84zm-20.16-4.33l16.62 9.6a.46.46 0 010 .85l-16.63 9.61a9.21 9.21 0 01-10.21 0l-16.6-9.58a.46.46 0 010-.85l16.62-9.6a9.17 9.17 0 0110.22.01zm-28.07-16.2l16.63 9.6a.46.46 0 010 .85l-16.63 9.6a9.15 9.15 0 01-10.2 0l-16.63-9.6a.46.46 0 010-.85l16.63-9.6a9.15 9.15 0 0110.22.04zm-13-4.85l-16.62 9.6a.47.47 0 01-.75-.42V70.48a9.18 9.18 0 015.1-8.83l16.63-9.6a.46.46 0 01.74.43v19.2a9.16 9.16 0 01-5.08 8.83zm-15.06 21l16.62 9.6a.46.46 0 010 .85l-16.63 9.61a9.21 9.21 0 01-10.21 0l-16.6-9.53a.46.46 0 010-.85l16.62-9.6a9.17 9.17 0 0110.22.01zm-13 92.37l-16.63 9.6a.45.45 0 01-.72-.27.39.39 0 010-.15V183.9a9.16 9.16 0 015.1-8.83l16.63-9.6a.45.45 0 01.72.28.61.61 0 010 .15v19.2a9.16 9.16 0 01-5.1 8.83zm-40.33 62.15l16.63-9.6a.46.46 0 01.73.43v19.2a9.16 9.16 0 01-5.1 8.83l-16.62 9.6a.47.47 0 01-.75-.42v-19.2a9.18 9.18 0 015.11-8.84zm17.36-22.38a9.17 9.17 0 01-5.1 8.84l-16.62 9.6a.47.47 0 01-.75-.43v-19.2a9.16 9.16 0 015.11-8.83l16.63-9.6a.46.46 0 01.73.43v19.2zm-.74-30.17l-16.62-9.6a9.18 9.18 0 01-5.11-8.84v-19.1a.47.47 0 01.74-.44l16.63 9.61a9.14 9.14 0 015.1 8.83v19.21a.47.47 0 01-.72.42zm-1.56-33.31l-16.63-9.6a.46.46 0 010-.85l16.63-9.6a9.15 9.15 0 0110.2 0l16.63 9.6a.46.46 0 010 .85l-16.63 9.6a9.15 9.15 0 01-10.18.09zm30.37-15.72a.46.46 0 01-.74.42l-16.63-9.6a9.16 9.16 0 01-5.1-8.83v-19.2a.46.46 0 01.74-.43l16.63 9.6a9.16 9.16 0 015.1 8.83zm-5.1-57.78l-16.63 9.6a.47.47 0 01-.74-.43V86.69a9.18 9.18 0 015.1-8.84l16.63-9.6a.47.47 0 01.74.43v19.2a9.18 9.18 0 01-5.08 8.84zm-23.7-77.08a.47.47 0 01.74.43v19.2a9.19 9.19 0 01-5.11 8.84l-16.62 9.6a.47.47 0 01-.75-.43V38.08a9.19 9.19 0 015.11-8.84zm-21 48.61l16.63 9.6a9.15 9.15 0 015.1 8.83v19.21a.47.47 0 01-.75.42l-16.62-9.6a9.16 9.16 0 01-5.04-8.74v-19.2a.46.46 0 01.7-.43zm-.74 32.83a.47.47 0 01.74-.43l16.63 9.6a9.16 9.16 0 015.1 8.84v19.2a.47.47 0 01-.75.43l-16.62-9.6a9.18 9.18 0 01-5.11-8.84zm2.31 32.88l16.63 9.6a.47.47 0 010 .86l-16.63 9.6a9.15 9.15 0 01-10.2 0l-16.63-9.6a.47.47 0 010-.86l16.63-9.6a9.19 9.19 0 0110.22.13zM-241 110.25l16.63-9.6a.47.47 0 01.74.43v19.2a9.17 9.17 0 01-5.1 8.84l-16.63 9.6a.46.46 0 01-.74-.43v-19.2a9.16 9.16 0 015.1-8.83zm-4.36 39l16.63 9.6a9.18 9.18 0 015.1 8.84v19.2a.46.46 0 01-.74.43l-16.63-9.6a9.18 9.18 0 01-5.1-8.84v-19.2a.47.47 0 01.74-.42zm21.73 83.25v19.2a.46.46 0 01-.74.43l-16.63-9.6a9.17 9.17 0 01-5.1-8.84V214.5a.47.47 0 01.74-.43l16.63 9.6a9.16 9.16 0 015.1 8.84zm0 32.41v19.2a.46.46 0 01-.74.42l-16.63-9.6a9.16 9.16 0 01-5.1-8.83v-19.2a.46.46 0 01.74-.43l16.63 9.6a9.17 9.17 0 015.1 8.85zm-28.8-50.85a.47.47 0 01.74.43v19.2a9.19 9.19 0 01-5.1 8.84l-16.63 9.6a.46.46 0 01-.74-.43v-19.2a9.18 9.18 0 015.1-8.84zm-21.73 50.85a9.17 9.17 0 015.1-8.84l16.63-9.6a.46.46 0 01.74.43v19.2a9.17 9.17 0 01-5.1 8.83l-16.63 9.6a.46.46 0 01-.74-.42v-19.2zm3.54 24.47l16.62-9.6a9.15 9.15 0 0110.2 0l16.63 9.6a.46.46 0 010 .85l-16.64 9.61a9.19 9.19 0 01-10.2 0l-16.63-9.61a.46.46 0 01.02-.84zm44.69-70.56l-16.63-9.6a.47.47 0 010-.86l16.63-9.6a9.19 9.19 0 0110.2 0l16.63 9.6a.47.47 0 010 .86l-16.63 9.6a9.15 9.15 0 01-10.2.01zm28.06 81l-16.63-9.61a.46.46 0 010-.85l16.63-9.6a9.15 9.15 0 0110.2 0l16.63 9.6a.46.46 0 010 .85l-16.63 9.61a9.19 9.19 0 01-10.2.03zm13-24.91a9.16 9.16 0 01-5.1-8.83v-19.2a.46.46 0 01.74-.43l16.63 9.6a9.17 9.17 0 015.1 8.84v19.2a.46.46 0 01-.74.42zm17.37-23.23a.46.46 0 01-.74.43l-16.63-9.6a9.17 9.17 0 01-5.1-8.84V214.5a.47.47 0 01.74-.43l16.63 9.6a9.18 9.18 0 015.1 8.84zm-2.31-32.88l-16.63-9.6a.51.51 0 01-.26-.31.46.46 0 01.27-.54l16.62-9.6a9.17 9.17 0 0110.21 0l16.62 9.6a.53.53 0 01.27.31.47.47 0 01-.26.54l-16.63 9.6a9.17 9.17 0 01-10.21.03zm7.9 13.68a9.16 9.16 0 015.1-8.83l16.63-9.61a.46.46 0 01.73.28.81.81 0 010 .16v19.2a9.16 9.16 0 01-5.1 8.83l-16.62 9.6a.46.46 0 01-.73-.27.77.77 0 010-.15v-19.18zm20.17 34.93l-16.63-9.6a.57.57 0 01-.27-.31.49.49 0 01.27-.55l16.63-9.6a9.19 9.19 0 0110.2 0l16.63 9.6a.57.57 0 01.26.31.47.47 0 01-.26.55l-16.63 9.6a9.15 9.15 0 01-10.2.03zm7.9 46.09a9.17 9.17 0 015.1-8.84l16.63-9.6a.46.46 0 01.74.43v19.2a9.17 9.17 0 01-5.1 8.83l-16.63 9.59a.46.46 0 01-.74-.42v-19.2zm3.54 24.5l16.62-9.6a9.15 9.15 0 0110.2 0l16.63 9.6a.46.46 0 010 .85l-16.64 9.61a9.19 9.19 0 01-10.2 0l-16.63-9.61a.46.46 0 01.02-.85zm44.69-70.56l-16.63-9.6a.53.53 0 01-.27-.31.48.48 0 01.27-.55l16.63-9.6a9.19 9.19 0 0110.2 0l16.63 9.6a.57.57 0 01.26.31.48.48 0 01-.26.55l-16.63 9.6a9.15 9.15 0 01-10.2 0zm28.06 81l-16.63-9.61a.46.46 0 010-.85l16.63-9.6a9.15 9.15 0 0110.2 0l16.63 9.6a.46.46 0 010 .85l-16.63 9.61a9.19 9.19 0 01-10.2.02zm13-24.9a9.16 9.16 0 01-5.1-8.83v-19.2a.46.46 0 01.74-.43l16.63 9.6a9.17 9.17 0 015.1 8.84v19.2a.46.46 0 01-.74.42zm16.63-22.81l-16.63-9.6a9.17 9.17 0 01-5.1-8.84v-19.17a.47.47 0 01.74-.44l16.63 9.61a9.16 9.16 0 015.1 8.83v19.2a.46.46 0 01-.74.43zm-1.57-33.31l-16.63-9.6a.46.46 0 010-.85l16.62-9.6a9.17 9.17 0 0110.21 0L-2.66 257a.46.46 0 010 .85l-16.63 9.6a9.17 9.17 0 01-10.2-.01zm28.07 48.61L-18 306.45a.46.46 0 010-.85l16.58-9.6a9.15 9.15 0 0110.2 0l16.63 9.6a.46.46 0 010 .85l-16.63 9.6a9.15 9.15 0 01-10.2 0zm7.9 13.68a9.16 9.16 0 015.1-8.83l16.63-9.61a.47.47 0 01.74.44v19.19a9.19 9.19 0 01-5.1 8.84l-16.63 9.6a.46.46 0 01-.74-.42v-19.19zm0 32.41a9.18 9.18 0 015.1-8.84l16.63-9.6a.46.46 0 01.74.43v19.2a9.2 9.2 0 01-5.1 8.84l-16.63 9.61a.46.46 0 01-.74-.42v-19.2zM10 386.61L26.64 377a9.15 9.15 0 0110.2 0l16.63 9.6a.46.46 0 010 .85l-16.64 9.61a9.19 9.19 0 01-10.2 0L10 387.46a.46.46 0 010-.85zm44.69-70.56l-16.63-9.6a.46.46 0 010-.85l16.65-9.6a9.15 9.15 0 0110.2 0l16.63 9.6a.46.46 0 010 .85l-16.63 9.6a9.15 9.15 0 01-10.2 0zm28.06 81l-16.63-9.61a.46.46 0 010-.85L82.77 377A9.15 9.15 0 0193 377l16.63 9.6a.46.46 0 010 .85L93 397.07a9.19 9.19 0 01-10.23 0zm13-24.9a9.18 9.18 0 01-5.1-8.84v-19.2a.46.46 0 01.74-.43L108 353.3a9.18 9.18 0 015.1 8.84v19.2a.46.46 0 01-.74.42zm17.37-23.23a.46.46 0 01-.74.42l-16.63-9.6a9.17 9.17 0 01-5.1-8.84v-19.17a.47.47 0 01.74-.44L108 320.9a9.16 9.16 0 015.1 8.83zm-2.31-32.89l-16.61-9.58a.46.46 0 010-.85l16.62-9.6a9.17 9.17 0 0110.18 0l16.62 9.6a.46.46 0 010 .85l-16.62 9.6a9.17 9.17 0 01-10.17 0zM136.1 275l-16.62 9.6a.47.47 0 01-.75-.42v-19.26a9.17 9.17 0 015.1-8.83l16.63-9.6a.46.46 0 01.74.43v19.2a9.16 9.16 0 01-5.1 8.83zm0-32.4l-16.62 9.6a.47.47 0 01-.75-.43v-19.2a9.2 9.2 0 015.1-8.84l16.63-9.6a.46.46 0 01.74.43v19.2a9.18 9.18 0 01-5.1 8.79zm2.8 57.3l-16.63-9.6a.47.47 0 010-.86l16.63-9.59a9.15 9.15 0 0110.2 0l16.63 9.59a.47.47 0 010 .86l-16.63 9.6a9.15 9.15 0 01-10.2-.05zm30.37-67.33v19.2a.47.47 0 01-.75.43l-16.62-9.6a9.18 9.18 0 01-5.1-8.84v-19.2a.46.46 0 01.74-.43l16.63 9.6a9.2 9.2 0 015.1 8.79zm-22.47 14.4a.46.46 0 01.74-.43l16.63 9.6a9.17 9.17 0 015.1 8.83v19.21a.47.47 0 01-.75.42L151.9 275a9.16 9.16 0 01-5.1-8.83zM109.6 63.41L93 73a9.15 9.15 0 01-10.2 0l-16.63-9.6a.46.46 0 010-.85L82.77 53A9.15 9.15 0 0193 53l16.63 9.6a.46.46 0 01-.03.81zM80 48.11l-16.62 9.6a.47.47 0 01-.75-.42V38.08a9.16 9.16 0 015.11-8.83l16.63-9.6a.46.46 0 01.74.43v19.2A9.16 9.16 0 0180 48.11zM63.34 68.25L80 77.85a9.19 9.19 0 015.11 8.84v19.2a.47.47 0 01-.75.43l-16.62-9.6a9.19 9.19 0 01-5.11-8.84v-19.2a.47.47 0 01.71-.43zm1.57 33.31l16.63 9.6a.47.47 0 010 .86l-16.63 9.6a9.15 9.15 0 01-10.2 0L38.08 112a.47.47 0 010-.86l16.63-9.6a9.19 9.19 0 0110.2.02zM34.54 52.48a.46.46 0 01.74-.43l16.63 9.6A9.18 9.18 0 0157 70.49v19.2a.46.46 0 01-.74.42l-16.62-9.59a9.18 9.18 0 01-5.1-8.84zm2.3 32.88L53.47 95a.46.46 0 010 .85l-16.63 9.61a9.19 9.19 0 01-10.2 0L10 95.81a.46.46 0 010-.81l16.62-9.6a9.15 9.15 0 0110.22-.04zM29 8.68a.47.47 0 01-.75.42L11.58-.5a9.16 9.16 0 01-5.1-8.83v-19.2a.46.46 0 01.74-.47l16.63 9.6A9.17 9.17 0 0129-10.53zM8.78 4.34l16.63 9.6a.47.47 0 010 .86L8.78 24.4a9.15 9.15 0 01-10.2 0L-18 14.8a.47.47 0 010-.86l16.63-9.6a9.17 9.17 0 0110.15 0zm-13 24.91a9.16 9.16 0 015.1 8.83v19.21a.46.46 0 01-.74.42l-16.63-9.6a9.19 9.19 0 01-5.1-8.84V20.08a.47.47 0 01.74-.44zm-16.63 22.8l16.63 9.6a9.18 9.18 0 015.1 8.84v19.2a.46.46 0 01-.74.42l-16.63-9.59a9.2 9.2 0 01-5.1-8.84v-19.2a.46.46 0 01.74-.43zm1.57 33.31L-2.66 95a.46.46 0 010 .85l-16.63 9.61a9.21 9.21 0 01-10.21 0l-16.63-9.61a.46.46 0 010-.85l16.62-9.6a9.17 9.17 0 0110.23-.04zm-13-37.25l-16.63 9.6a.46.46 0 01-.74-.42V38.08a9.16 9.16 0 015.1-8.83l16.63-9.61a.47.47 0 01.74.44v19.19a9.17 9.17 0 01-5.1 8.84zm1.56-33.31l-16.63 9.6a9.15 9.15 0 01-10.2 0l-16.63-9.6a.47.47 0 010-.86l16.63-9.6a9.17 9.17 0 0110.2 0l16.63 9.6a.47.47 0 010 .86zM-60.35-.5L-77 9.1a.47.47 0 01-.75-.42v-19.21a9.16 9.16 0 015.11-8.83L-56-29a.46.46 0 01.74.43v19.2A9.16 9.16 0 01-60.35-.5zM-75.41 53l16.63 9.6a.47.47 0 010 .86L-75.41 73a9.19 9.19 0 01-10.2 0l-16.63-9.6a.47.47 0 010-.86L-85.61 53a9.19 9.19 0 0110.2 0zm-30.37-29.88V3.87a.46.46 0 01.74-.43L-88.41 13a9.17 9.17 0 015.1 8.84v19.2a.46.46 0 01-.74.42l-16.63-9.59a9.16 9.16 0 01-5.1-8.8zm22.47-14.4a.46.46 0 01-.69.38l-16.68-9.6a9.17 9.17 0 01-5.1-8.84v-19.19A.47.47 0 01-105-29l16.63 9.61a9.16 9.16 0 015.1 8.83zm-20.17 28.08l16.62 9.6a.46.46 0 010 .85l-16.63 9.61a9.19 9.19 0 01-10.2 0l-16.63-9.61a.46.46 0 010-.85l16.62-9.6a9.15 9.15 0 0110.22-.05zm-7.89-76.68a.47.47 0 01-.75.42l-16.62-9.6a9.17 9.17 0 01-5.1-8.84v-19.24a.47.47 0 01.74-.44l16.63 9.58a9.17 9.17 0 015.1 8.83zm-20.17-4.34l16.63 9.6a.47.47 0 010 .86l-16.63 9.6a9.15 9.15 0 01-10.2 0l-16.63-9.6a.47.47 0 010-.86l16.63-9.6a9.19 9.19 0 0110.2-.05zm-13 24.91a9.16 9.16 0 015.1 8.83V8.67a.46.46 0 01-.74.43l-16.63-9.6a9.19 9.19 0 01-5.1-8.84v-19.19a.47.47 0 01.74-.44zm-17.37 23.18a.46.46 0 01.74-.43l16.63 9.6a9.17 9.17 0 015.1 8.84v19.2a.46.46 0 01-.74.42l-16.63-9.59a9.2 9.2 0 01-5.1-8.84zm2.31 32.88l16.62 9.6a.46.46 0 010 .85l-16.63 9.61a9.21 9.21 0 01-10.21 0l-16.63-9.61a.46.46 0 010-.85l16.62-9.6a9.17 9.17 0 0110.23 0zm-13-37.25l-16.63 9.6a.46.46 0 01-.74-.43v-19.2a9.16 9.16 0 015.1-8.83l16.63-9.64a.47.47 0 01.74.44v19.22a9.17 9.17 0 01-5.1 8.84zm1.6-33.31l-16.63 9.6a9.15 9.15 0 01-10.2 0l-16.63-9.6a.47.47 0 010-.86l16.63-9.6a9.19 9.19 0 0110.2 0l16.63 9.6a.47.47 0 010 .86zm-29.63-15.3l-16.62 9.6a.47.47 0 01-.75-.42v-19.21a9.16 9.16 0 015.07-8.86l16.63-9.61a.47.47 0 01.74.44v19.19a9.18 9.18 0 01-5.11 8.87zm-28.06 78.35a9.18 9.18 0 015.1 8.84v19.2a.46.46 0 01-.74.42L-241 48.11a9.18 9.18 0 01-5.1-8.84v-19.2a.46.46 0 01.74-.43zM-243.79 53l16.62 9.6a.46.46 0 010 .85L-243.79 73A9.21 9.21 0 01-254 73l-16.63-9.61a.46.46 0 010-.85L-254 53a9.17 9.17 0 0110.21 0zm-13 24.9a9.19 9.19 0 015.1 8.84v19.2a.47.47 0 01-.75.42l-16.62-9.6a9.16 9.16 0 01-5.1-8.83V68.68a.46.46 0 01.73-.43zm-16.64 22.8l16.64 9.6a9.17 9.17 0 015.1 8.83v19.2a.47.47 0 01-.75.43l-16.62-9.6a9.17 9.17 0 01-5.1-8.84v-19.2a.46.46 0 01.73-.47zm1.57 33.31l16.63 9.6a.47.47 0 010 .86l-16.63 9.6a9.15 9.15 0 01-10.2 0l-16.63-9.6a.47.47 0 010-.86l16.63-9.6a9.19 9.19 0 0110.2-.01zm-13-4.84l-16.62 9.6a.47.47 0 01-.75-.43v-19.2a9.18 9.18 0 015.1-8.84l16.63-9.6a.47.47 0 01.74.43v19.2a9.17 9.17 0 01-5.1 8.84zm0-32.41l-16.62 9.6a.47.47 0 01-.75-.42V86.68a9.17 9.17 0 015.1-8.83l16.63-9.6a.46.46 0 01.74.43v19.2a9.16 9.16 0 01-5.1 8.83zm-45.43 57.79v-19.26a9.16 9.16 0 015.1-8.83l16.63-9.6a.46.46 0 01.74.43v19.2a9.16 9.16 0 01-5.1 8.83l-16.63 9.6a.46.46 0 01-.74-.42zm20.16 15.72l-16.63-9.6a.46.46 0 010-.85l16.62-9.6a9.17 9.17 0 0110.21 0l16.62 9.6a.46.46 0 010 .85l-16.63 9.6a9.17 9.17 0 01-10.19-.05zm7.9 32.89V183.9a9.16 9.16 0 015.1-8.83l16.63-9.61a.47.47 0 01.74.44v19.19a9.17 9.17 0 01-5.1 8.84l-16.62 9.6a.47.47 0 01-.75-.42zm20.17 15.72l-16.63-9.6a.47.47 0 010-.86l16.63-9.6a9.19 9.19 0 0110.2 0l16.63 9.6a.47.47 0 010 .86l-16.63 9.6a9.15 9.15 0 01-10.2-.05zm-20.17 81.49v-19.2a9.18 9.18 0 015.1-8.84l16.63-9.6a.47.47 0 01.74.43v19.2a9.18 9.18 0 01-5.1 8.84l-16.62 9.6a.47.47 0 01-.75-.48zm20.17 15.73l-16.63-9.6a.47.47 0 010-.86l16.63-9.6a9.19 9.19 0 0110.2 0l16.63 9.6a.47.47 0 010 .86l-16.63 9.6a9.19 9.19 0 01-10.2-.05zm7.9 32.88v-19.2a9.18 9.18 0 015.1-8.84l16.63-9.6a.46.46 0 01.74.43v19.2a9.2 9.2 0 01-5.1 8.84l-16.63 9.59a.46.46 0 01-.74-.47zm47 6.12l-16.64 9.61a9.19 9.19 0 01-10.2 0l-16.63-9.61a.46.46 0 010-.85l16.62-9.6a9.15 9.15 0 0110.2 0l16.63 9.6a.46.46 0 01.02.8zm1.23-6.6l-16.63-9.6a.46.46 0 010-.85l16.63-9.6a9.15 9.15 0 0110.2 0l16.63 9.6a.46.46 0 010 .85l-16.63 9.6a9.15 9.15 0 01-10.2-.05zm54.89 6.6l-16.63 9.61a9.19 9.19 0 01-10.2 0l-16.63-9.61a.46.46 0 010-.85l16.63-9.6a9.15 9.15 0 0110.2 0l16.63 9.6a.46.46 0 01.04.8zm3.54-6.12a.46.46 0 01-.74.42l-16.63-9.59a9.18 9.18 0 01-5.1-8.84v-19.2a.46.46 0 01.74-.43l16.63 9.6a9.18 9.18 0 015.1 8.84zm-2.31-32.88l-16.63-9.6a.47.47 0 010-.86l16.62-9.6a9.21 9.21 0 0110.21 0l16.62 9.6a.47.47 0 010 .86l-16.63 9.6a9.21 9.21 0 01-10.19-.05zm7.9 32.88v-19.2a9.18 9.18 0 015.1-8.84l16.63-9.6a.47.47 0 01.74.43v19.2a9.18 9.18 0 01-5.1 8.84l-16.62 9.6a.47.47 0 01-.75-.48zm20.17 15.73l-16.63-9.6a.47.47 0 010-.86l16.63-9.6a9.19 9.19 0 0110.2 0l16.63 9.6a.47.47 0 010 .86l-16.63 9.6a9.19 9.19 0 01-10.2-.05zm7.9 32.88v-19.2a9.18 9.18 0 015.1-8.84l16.63-9.6a.47.47 0 01.74.43v19.2a9.2 9.2 0 01-5.1 8.84L-133.1 398a.47.47 0 01-.74-.46zm47 6.13l-16.64 9.6a9.19 9.19 0 01-10.2 0l-16.63-9.6a.47.47 0 010-.86l16.62-9.6a9.15 9.15 0 0110.2 0l16.63 9.6a.47.47 0 01.02.81zm1.23-6.61l-16.63-9.6a.46.46 0 010-.85l16.63-9.6a9.15 9.15 0 0110.2 0l16.63 9.6a.46.46 0 010 .85l-16.63 9.6a9.15 9.15 0 01-10.2-.05zm54.89 6.61l-16.63 9.6a9.19 9.19 0 01-10.2 0l-16.63-9.6a.47.47 0 010-.86l16.63-9.6a9.15 9.15 0 0110.2 0l16.63 9.6a.47.47 0 010 .81zm3.54-6.13a.47.47 0 01-.74.43l-16.63-9.6a9.18 9.18 0 01-5.1-8.84v-19.2a.47.47 0 01.74-.43l16.63 9.6a9.18 9.18 0 015.1 8.84zm-2.31-32.88l-16.63-9.6a.47.47 0 010-.86l16.62-9.6a9.21 9.21 0 0110.21 0l16.62 9.6a.47.47 0 010 .86l-16.63 9.6a9.21 9.21 0 01-10.19-.05zm7.9 32.88v-19.2a9.18 9.18 0 015.1-8.84L.14 359.9a.47.47 0 01.74.43v19.2a9.18 9.18 0 01-5.1 8.84L-20.84 398a.47.47 0 01-.75-.46zm20.17 15.73L-18 403.67a.47.47 0 010-.86l16.63-9.6a9.19 9.19 0 0110.2 0l16.63 9.6a.47.47 0 010 .86l-16.63 9.6a9.15 9.15 0 01-10.25 0zm7.9 32.88V427a9.18 9.18 0 015.1-8.84l16.63-9.6a.47.47 0 01.74.43v19.2a9.2 9.2 0 01-5.1 8.84l-16.63 9.6a.46.46 0 01-.74-.48zm47 6.13l-16.64 9.6a9.19 9.19 0 01-10.2 0L10 452.28a.47.47 0 010-.86l16.62-9.6a9.15 9.15 0 0110.2 0l16.63 9.6a.47.47 0 01.03.86zm1.23-6.61l-16.63-9.6a.46.46 0 010-.85l16.63-9.6a9.15 9.15 0 0110.2 0l16.63 9.6a.46.46 0 010 .85l-16.63 9.6a9.15 9.15 0 01-10.2-.05zm54.89 6.61L93 461.88a9.19 9.19 0 01-10.2 0l-16.63-9.6a.47.47 0 010-.86l16.63-9.6a9.15 9.15 0 0110.2 0l16.63 9.6a.47.47 0 01-.03.86zm3.54-6.13a.46.46 0 01-.74.43L95.77 437a9.18 9.18 0 01-5.1-8.84v-19.2a.47.47 0 01.74-.43l16.63 9.6a9.18 9.18 0 015.1 8.84zm24.53-42.48L121 413.27a9.17 9.17 0 01-10.21 0l-16.63-9.6a.47.47 0 010-.86l16.62-9.6a9.21 9.21 0 0110.21 0l16.62 9.6a.47.47 0 01.06.86zm3.53-6.13a.46.46 0 01-.74.43l-16.63-9.6a9.2 9.2 0 01-5.1-8.84v-19.2a.47.47 0 01.74-.43l16.63 9.6a9.18 9.18 0 015.1 8.84zm24.53-42.48l-16.63 9.6a9.15 9.15 0 01-10.2 0l-16.63-9.6a.46.46 0 010-.85l16.63-9.6a9.15 9.15 0 0110.2 0l16.63 9.6a.46.46 0 010 .8zm1.23-6.6l-16.63-9.6a.47.47 0 010-.86L167 328.4a9.21 9.21 0 0110.21 0l16.62 9.6a.47.47 0 010 .86l-16.63 9.6a9.17 9.17 0 01-10.2 0zm54.9 6.6l-16.63 9.6a9.15 9.15 0 01-10.2 0l-16.63-9.6a.46.46 0 010-.85l16.63-9.6a9.15 9.15 0 0110.2 0l16.63 9.6a.46.46 0 010 .8zm3.54-6.12a.47.47 0 01-.75.42L208 339.76a9.16 9.16 0 01-5.11-8.83v-19.2a.46.46 0 01.74-.43l16.63 9.6a9.16 9.16 0 015.11 8.83zm-2.31-32.89l-16.63-9.6a.46.46 0 010-.85l16.63-9.6a9.15 9.15 0 0110.2 0l16.63 9.6a.46.46 0 010 .85l-16.63 9.61a9.15 9.15 0 01-10.2-.06zm7.9 32.89v-19.2a9.17 9.17 0 015.1-8.84l16.63-9.6a.46.46 0 01.74.43v19.2a9.16 9.16 0 01-5.1 8.83l-16.63 9.6a.46.46 0 01-.73-.47zm20.16 15.73l-16.63-9.61a.46.46 0 010-.85l16.62-9.6a9.17 9.17 0 0110.21 0l16.62 9.6a.46.46 0 010 .85l-16.63 9.61a9.21 9.21 0 01-10.19-.05zm7.9 32.88v-19.26a9.18 9.18 0 015.1-8.83l16.63-9.6a.46.46 0 01.74.43v19.2a9.16 9.16 0 01-5.1 8.83L259.8 398a.47.47 0 01-.75-.45zm47 6.12l-16.63 9.6a9.15 9.15 0 01-10.2 0l-16.63-9.6a.46.46 0 010-.85l16.63-9.6a9.15 9.15 0 0110.2 0l16.63 9.6a.46.46 0 010 .8zm1.23-6.6l-16.63-9.6a.47.47 0 010-.86l16.62-9.6a9.21 9.21 0 0110.21 0l16.62 9.6a.47.47 0 010 .86l-16.63 9.6a9.17 9.17 0 01-10.19-.05zm54.9 6.6l-16.63 9.6a9.15 9.15 0 01-10.2 0l-16.63-9.6a.46.46 0 010-.85l16.63-9.6a9.15 9.15 0 0110.2 0l16.63 9.6a.46.46 0 010 .8zm3.54-6.12a.47.47 0 01-.75.42l-16.62-9.6a9.16 9.16 0 01-5.11-8.83v-19.2a.46.46 0 01.74-.43l16.63 9.6a9.17 9.17 0 015.11 8.83zm-2.31-32.88l-16.63-9.61a.46.46 0 010-.85l16.63-9.6a9.15 9.15 0 0110.2 0l16.63 9.6a.46.46 0 010 .85l-16.63 9.61a9.19 9.19 0 01-10.2-.05zm7.9 32.88v-19.2a9.18 9.18 0 015.1-8.84l16.63-9.6a.47.47 0 01.74.43v19.2a9.18 9.18 0 01-5.1 8.84L372.05 398a.47.47 0 01-.74-.45zm20.17 15.73l-16.63-9.6a.47.47 0 010-.86l16.62-9.6a9.15 9.15 0 0110.2 0l16.62 9.6a.47.47 0 010 .86l-16.63 9.6a9.19 9.19 0 01-10.18-.05zm7.89 32.88V427a9.19 9.19 0 015.1-8.84l16.63-9.6a.46.46 0 01.74.43v19.2a9.16 9.16 0 01-5.1 8.83l-16.62 9.6a.47.47 0 01-.75-.46zm47 6.12l-16.63 9.61a9.19 9.19 0 01-10.2 0l-16.63-9.61a.46.46 0 010-.85l16.63-9.6a9.15 9.15 0 0110.2 0l16.63 9.6a.46.46 0 010 .8zm1.23-6.6l-16.6-9.65a.46.46 0 010-.85l16.62-9.6a9.17 9.17 0 0110.21 0l16.62 9.6a.46.46 0 010 .85l-16.63 9.6a9.17 9.17 0 01-10.22 0zm54.9 6.6l-16.63 9.61a9.19 9.19 0 01-10.2 0L459 452.28a.46.46 0 010-.85l16.63-9.6a9.15 9.15 0 0110.2 0l16.63 9.6a.46.46 0 01.04.85zm3.54-6.12a.47.47 0 01-.75.42L488.67 437a9.16 9.16 0 01-5.11-8.83V409a.46.46 0 01.74-.43l16.63 9.6A9.18 9.18 0 01506 427zm24.52-42.48l-16.63 9.6a9.19 9.19 0 01-10.2 0l-16.63-9.6a.47.47 0 010-.86l16.63-9.6a9.15 9.15 0 0110.2 0l16.63 9.6a.47.47 0 010 .81zm3.54-6.13a.47.47 0 01-.74.43l-16.63-9.6a9.18 9.18 0 01-5.1-8.84v-19.2a.47.47 0 01.74-.43l16.63 9.6a9.18 9.18 0 015.1 8.84zm24.53-42.48L542 364.67a9.15 9.15 0 01-10.2 0l-16.64-9.6a.47.47 0 010-.86l16.63-9.6a9.19 9.19 0 0110.2 0l16.62 9.6a.47.47 0 01.02.86zm1.23-6.6l-16.63-9.6a.47.47 0 010-.86l16.63-9.6a9.19 9.19 0 0110.2 0l16.63 9.6a.47.47 0 010 .86l-16.63 9.6a9.19 9.19 0 01-10.2-.05zm54.9 6.6l-16.63 9.6a9.17 9.17 0 01-10.21 0l-16.63-9.6a.47.47 0 010-.86l16.62-9.6a9.21 9.21 0 0110.21 0l16.62 9.6a.47.47 0 01.02.81zm3.53-6.12a.46.46 0 01-.74.42l-16.63-9.6a9.17 9.17 0 01-5.1-8.84v-19.24a.47.47 0 01.74-.44l16.63 9.61a9.16 9.16 0 015.1 8.83zm5.59-85.82a.46.46 0 01.74-.43l16.63 9.6a9.16 9.16 0 015.11 8.83v19.21a.47.47 0 01-.75.42L629 291.16a9.16 9.16 0 01-5.11-8.83zm2.31 32.82l16.63 9.59a.47.47 0 010 .86l-16.63 9.6a9.15 9.15 0 01-10.2 0l-16.63-9.6a.47.47 0 010-.86L616 296a9.15 9.15 0 0110.19 0zm-30.37-81.49a.46.46 0 01.74-.43l16.63 9.6a9.17 9.17 0 015.1 8.83v19.21a.46.46 0 01-.74.42l-16.63-9.6a9.16 9.16 0 01-5.1-8.83zm0 32.4a.47.47 0 01.74-.43l16.63 9.6a9.18 9.18 0 015.1 8.84v19.2a.46.46 0 01-.74.43L600.92 275a9.17 9.17 0 01-5.1-8.84zm0-129.62a.46.46 0 01.74-.43l16.63 9.6a9.18 9.18 0 015.1 8.84v19.2a.47.47 0 01-.74.43l-16.63-9.6a9.18 9.18 0 01-5.1-8.84zm2.31 32.88l16.62 9.6a.46.46 0 010 .85l-16.63 9.61a9.21 9.21 0 01-10.21 0l-16.63-9.61a.46.46 0 010-.85l16.62-9.6a9.17 9.17 0 0110.23.01zM568.5 68.26l16.63 9.6a9.18 9.18 0 015.1 8.84v19.2a.47.47 0 01-.75.43l-16.62-9.6a9.18 9.18 0 01-5.1-8.84v-19.2a.47.47 0 01.74-.43zm-.74-96.78a.46.46 0 01.74-.43l16.63 9.6a9.16 9.16 0 015.1 8.83V8.69a.46.46 0 01-.74.42l-16.63-9.6a9.16 9.16 0 01-5.1-8.83zm2.3 32.88L586.69 14a.47.47 0 010 .86l-16.63 9.6a9.15 9.15 0 01-10.2 0l-16.63-9.6a.47.47 0 010-.86l16.63-9.59a9.15 9.15 0 0110.2-.05zm-30.37-81.49a.46.46 0 01.74-.43L557.06-68a9.17 9.17 0 015.1 8.83v19.21a.46.46 0 01-.74.42l-16.63-9.6a9.17 9.17 0 01-5.1-8.83zm0 32.4a.47.47 0 01.74-.43l16.63 9.6a9.18 9.18 0 015.1 8.84v19.2a.46.46 0 01-.74.43l-16.63-9.6a9.19 9.19 0 01-5.1-8.84zm0-129.62a.46.46 0 01.74-.43l16.63 9.6a9.18 9.18 0 015.1 8.84v19.2a.47.47 0 01-.74.43l-16.63-9.6a9.2 9.2 0 01-5.1-8.84zm2.31 32.88l16.62 9.6a.46.46 0 010 .85L542-121.41a9.19 9.19 0 01-10.2 0L515.16-131a.46.46 0 010-.85l16.63-9.6a9.15 9.15 0 0110.21-.02zM511.63-223a.47.47 0 01.74-.43l16.63 9.6a9.18 9.18 0 015.1 8.84v19.2a.46.46 0 01-.74.43l-16.63-9.6a9.18 9.18 0 01-5.1-8.84zm0 32.41a.46.46 0 01.74-.43l16.63 9.6a9.17 9.17 0 015.1 8.83v19.21a.46.46 0 01-.74.42l-16.63-9.6a9.16 9.16 0 01-5.1-8.83zm2.3 32.88l16.63 9.6a.46.46 0 010 .85l-16.63 9.6a9.15 9.15 0 01-10.2 0l-16.63-9.6a.46.46 0 010-.85l16.63-9.6a9.15 9.15 0 0110.2.04zM506-171.35a9.16 9.16 0 01-5.11 8.83l-16.62 9.6a.46.46 0 01-.74-.42v-19.21a9.17 9.17 0 015.1-8.83L505.3-191a.46.46 0 01.74.43v19.2zm-22.47-33.6a9.18 9.18 0 015.1-8.84l16.63-9.6a.47.47 0 01.74.43v19.2a9.19 9.19 0 01-5.11 8.84l-16.62 9.6a.46.46 0 01-.74-.43zm0 63a.46.46 0 01.73-.43l16.63 9.6a9.16 9.16 0 015.11 8.83v19.21a.47.47 0 01-.75.42l-16.62-9.6a9.16 9.16 0 01-5.1-8.83zm2.3 32.88l16.63 9.59a.47.47 0 010 .86L485.87-89a9.15 9.15 0 01-10.2 0L459-98.61a.47.47 0 010-.86l16.63-9.59a9.15 9.15 0 0110.24 0zM478-122.74a9.16 9.16 0 01-5.1 8.83l-16.63 9.6a.46.46 0 01-.74-.42v-19.21a9.16 9.16 0 015.1-8.83l16.63-9.6a.46.46 0 01.74.43zM455.5-223a.47.47 0 01.74-.43l16.63 9.6a9.18 9.18 0 015.1 8.84v19.2a.46.46 0 01-.74.43l-16.63-9.6a9.18 9.18 0 01-5.1-8.84zm0 32.41a.46.46 0 01.74-.43l16.63 9.6a9.17 9.17 0 015.1 8.83v19.21a.46.46 0 01-.74.42l-16.63-9.6a9.16 9.16 0 01-5.1-8.83zm2.31 32.88l16.62 9.6a.46.46 0 010 .85l-16.63 9.6a9.17 9.17 0 01-10.21 0L431-147.22a.46.46 0 010-.85l16.62-9.6a9.17 9.17 0 0110.19 0zm-13-4.85l-16.63 9.6a.46.46 0 01-.74-.42v-19.21a9.17 9.17 0 015.1-8.83l16.63-9.6a.46.46 0 01.74.43v19.2a9.16 9.16 0 01-5.1 8.83zm-17.37-42.43a9.18 9.18 0 015.1-8.84l16.63-9.6a.47.47 0 01.74.43v19.2a9.18 9.18 0 01-5.1 8.84l-16.63 9.6a.46.46 0 01-.74-.43v-19.2zm2.3 63.48l16.63 9.6a.46.46 0 010 .85l-16.63 9.61a9.19 9.19 0 01-10.2 0L402.91-131a.46.46 0 010-.85l16.63-9.6a9.15 9.15 0 0110.2-.02zm-30.37-14.87a9.2 9.2 0 015.1-8.84l16.63-9.6a.46.46 0 01.74.43v19.2a9.18 9.18 0 01-5.1 8.84l-16.62 9.6a.47.47 0 01-.75-.43v-19.2zm2.31 95.88l16.62 9.6a.47.47 0 010 .86l-16.63 9.6a9.19 9.19 0 01-10.2 0L374.84-50a.47.47 0 010-.86l16.63-9.6a9.19 9.19 0 0110.21 0zm-7.9-13.68a9.18 9.18 0 01-5.1 8.84l-16.63 9.6a.46.46 0 01-.74-.43v-19.2a9.18 9.18 0 015.1-8.84L393-93.77a.47.47 0 01.74.43v19.2zm-22.47-33.6a9.16 9.16 0 015.1-8.83l16.63-9.6a.46.46 0 01.74.43v19.2a9.16 9.16 0 01-5.1 8.83l-16.63 9.6a.46.46 0 01-.74-.42zm0 63a.47.47 0 01.74-.43l16.63 9.6a9.18 9.18 0 015.1 8.84v19.2a.47.47 0 01-.74.43l-16.63-9.6a9.18 9.18 0 01-5.1-8.84zm2.3 32.88l16.63 9.6a.47.47 0 010 .86l-16.63 9.6a9.19 9.19 0 01-10.2 0l-16.63-9.6a.47.47 0 010-.86l16.63-9.6a9.15 9.15 0 0110.2.05zm-7.89-13.68a9.19 9.19 0 01-5.11 8.84L344-7.09a.47.47 0 01-.74-.43v-19.2a9.18 9.18 0 015.1-8.84l16.64-9.6a.47.47 0 01.74.43zm-22.47-100.16a.46.46 0 01.73-.43l16.63 9.6a9.16 9.16 0 015.11 8.83v19.21a.47.47 0 01-.75.42l-16.62-9.6a9.16 9.16 0 01-5.1-8.83zm0 32.4a.46.46 0 01.73-.43l16.63 9.6a9.19 9.19 0 015.11 8.84v19.2a.47.47 0 01-.75.43l-16.62-9.6a9.18 9.18 0 01-5.1-8.84zm2.3 32.88l16.63 9.6a.47.47 0 010 .86l-16.63 9.6a9.19 9.19 0 01-10.2 0L318.72-50a.47.47 0 010-.86l16.63-9.6a9.19 9.19 0 0110.2 0zm-13-4.84l-16.63 9.6a.46.46 0 01-.74-.43v-19.2a9.18 9.18 0 015.1-8.84l16.63-9.6a.47.47 0 01.74.43v19.2a9.18 9.18 0 01-5.1 8.84zm-17.37-42.44a9.16 9.16 0 015.1-8.83l16.63-9.6a.46.46 0 01.74.43v19.2a9.16 9.16 0 01-5.1 8.83l-16.63 9.6a.46.46 0 01-.74-.42v-19.21zm2.31 63.48l16.62 9.6a.47.47 0 010 .86l-16.63 9.6a9.17 9.17 0 01-10.21 0l-16.63-9.6a.47.47 0 010-.86l16.62-9.6a9.21 9.21 0 0110.23 0zm-30.37-81.48a.47.47 0 01.74-.44l16.63 9.61a9.16 9.16 0 015.1 8.83v19.21a.47.47 0 01-.75.42l-16.62-9.6a9.17 9.17 0 01-5.1-8.84zm2.3 32.87l16.63 9.6a.47.47 0 010 .86l-16.63 9.6a9.15 9.15 0 01-10.2 0l-16.63-9.6a.47.47 0 010-.86l16.63-9.6a9.19 9.19 0 0110.2 0zm-30.37-81.48a.46.46 0 01.74-.43l16.63 9.6a9.16 9.16 0 015.1 8.83v19.21a.46.46 0 01-.74.42l-16.63-9.6a9.17 9.17 0 01-5.1-8.83zm0 32.4a.47.47 0 01.74-.43l16.63 9.6a9.18 9.18 0 015.1 8.84v19.2a.46.46 0 01-.74.43l-16.63-9.6a9.2 9.2 0 01-5.1-8.84zm2.31 32.88l16.64 9.6a.47.47 0 010 .86L261.36-89a9.19 9.19 0 01-10.2 0l-16.64-9.6a.47.47 0 010-.86l16.63-9.6a9.19 9.19 0 0110.21-.01zm-7.9-13.68a9.18 9.18 0 01-5.1 8.84l-16.63 9.6a.46.46 0 01-.74-.43v-19.2a9.18 9.18 0 015.1-8.84l16.63-9.6a.47.47 0 01.74.43v19.2zM231-156.35a9.16 9.16 0 015.1-8.83l16.63-9.6a.46.46 0 01.74.43v19.2a9.16 9.16 0 01-5.1 8.83l-16.63 9.6a.46.46 0 01-.74-.42zm0 63a.46.46 0 01.74-.43l16.63 9.6a9.18 9.18 0 015.1 8.84v19.2a.47.47 0 01-.74.43l-16.63-9.6a9.18 9.18 0 01-5.1-8.84zm2.3 32.88l16.63 9.6a.46.46 0 010 .85l-16.64 9.62a9.19 9.19 0 01-10.2 0L206.46-50a.46.46 0 010-.85l16.63-9.6a9.15 9.15 0 0110.2-.01zm-7.9-13.67a9.19 9.19 0 01-5.11 8.84l-16.62 9.6a.47.47 0 01-.74-.43v-19.2a9.16 9.16 0 015.1-8.84l16.63-9.6a.46.46 0 01.74.43zm-22.47-100.21a.46.46 0 01.73-.43l16.63 9.6a9.16 9.16 0 015.11 8.83v19.21a.47.47 0 01-.75.42l-16.65-9.6a9.14 9.14 0 01-5.1-8.83zm0 32.4a.46.46 0 01.73-.43l16.63 9.6a9.19 9.19 0 015.11 8.84v19.2a.47.47 0 01-.75.43l-16.65-9.6a9.16 9.16 0 01-5.1-8.84zm2.3 32.88l16.63 9.6a.47.47 0 010 .86L205.23-89A9.19 9.19 0 01195-89l-16.63-9.6a.47.47 0 010-.86l16.63-9.6a9.19 9.19 0 0110.23-.01zm-13-4.84l-16.63 9.6a.46.46 0 01-.74-.43v-19.2a9.18 9.18 0 015.1-8.84l16.63-9.6a.47.47 0 01.74.43v19.2a9.18 9.18 0 01-5.1 8.84zm-17.37-42.44a9.16 9.16 0 015.1-8.83l16.63-9.6a.46.46 0 01.74.43v19.2a9.16 9.16 0 01-5.1 8.83l-16.63 9.6a.46.46 0 01-.74-.42v-19.21zm2.31 63.48l16.62 9.6a.47.47 0 010 .86l-16.63 9.6a9.17 9.17 0 01-10.21 0l-16.63-9.6a.47.47 0 010-.86l16.68-9.6a9.21 9.21 0 0110.17 0zm-30.37-14.87a9.16 9.16 0 015.1-8.83l16.63-9.61a.47.47 0 01.74.44v19.19a9.19 9.19 0 01-5.1 8.84l-16.63 9.6a.46.46 0 01-.74-.42v-19.21zm0 30.6a.46.46 0 01.74-.43L164.17-68a9.2 9.2 0 015.1 8.84v19.2a.47.47 0 01-.75.43L151.9-49.1a9.18 9.18 0 01-5.1-8.84zm0 32.41a.46.46 0 01.74-.43l16.63 9.6a9.17 9.17 0 015.1 8.83v19.21a.47.47 0 01-.75.42l-16.62-9.6a9.16 9.16 0 01-5.1-8.83zm2.3 32.88l16.63 9.59a.47.47 0 010 .86L149.1 8.2a9.15 9.15 0 01-10.2 0l-16.63-9.6a.47.47 0 010-.86l16.63-9.59a9.15 9.15 0 0110.2 0zm-7.9-13.68a9.16 9.16 0 01-5.1 8.83l-16.62 9.6a.47.47 0 01-.75-.42v-19.21a9.17 9.17 0 015.1-8.83l16.63-9.6a.46.46 0 01.74.43v19.2zm-22.47-33.6a9.2 9.2 0 015.1-8.84l16.63-9.6a.46.46 0 01.74.43v19.2a9.18 9.18 0 01-5.1 8.84l-16.62 9.6a.47.47 0 01-.75-.43zm0 63a.47.47 0 01.74-.44l16.63 9.61a9.16 9.16 0 015.1 8.83v19.2a.46.46 0 01-.74.43l-16.63-9.6a9.19 9.19 0 01-5.1-8.84zM121 36.75l16.62 9.6a.47.47 0 010 .86L121 56.81a9.15 9.15 0 01-10.2 0l-16.6-9.6a.47.47 0 010-.86l16.62-9.6a9.19 9.19 0 0110.18 0zm-13-4.84l-16.63 9.6a.46.46 0 01-.74-.43v-19.2a9.16 9.16 0 015.1-8.83l16.67-9.61a.47.47 0 01.74.44v19.19a9.17 9.17 0 01-5.14 8.84zm-17.37-109a.46.46 0 01.74-.43L108-68a9.18 9.18 0 015.1 8.84v19.2a.47.47 0 01-.74.43L95.77-49.1a9.18 9.18 0 01-5.1-8.84zm0 32.41a.46.46 0 01.74-.43L108-35.56a9.16 9.16 0 015.1 8.83v19.21a.46.46 0 01-.74.42l-16.59-9.6a9.16 9.16 0 01-5.1-8.83zM93-11.85l16.6 9.59a.47.47 0 010 .86L93 8.2a9.15 9.15 0 01-10.2 0L66.14-1.4a.47.47 0 010-.86l16.63-9.59a9.15 9.15 0 0110.23 0zM62.6-59.13A9.19 9.19 0 0167.71-68l16.63-9.6a.46.46 0 01.74.43v19.2A9.19 9.19 0 0180-49.1l-16.65 9.6a.47.47 0 01-.75-.43v-19.2zm0 32.4a9.16 9.16 0 015.11-8.83l16.63-9.6a.46.46 0 01.74.43v19.2A9.16 9.16 0 0180-16.7L63.35-7.1a.47.47 0 01-.75-.42v-19.21zm2.31 31.08L81.54 14a.46.46 0 010 .85L64.91 24.4a9.15 9.15 0 01-10.2 0l-16.63-9.6a.46.46 0 010-.85l16.63-9.6a9.15 9.15 0 0110.2 0zM34.54-77.14a.46.46 0 01.74-.43L51.91-68A9.16 9.16 0 0157-59.14v19.21a.46.46 0 01-.74.42l-16.63-9.6a9.16 9.16 0 01-5.1-8.83zm2.31 32.88l16.62 9.6a.46.46 0 010 .85l-16.63 9.6a9.17 9.17 0 01-10.21 0L10-33.81a.46.46 0 010-.85l16.62-9.6a9.17 9.17 0 0110.23 0zM6.48-125.75a.46.46 0 01.74-.43l16.63 9.6a9.19 9.19 0 015.1 8.84v19.2a.47.47 0 01-.75.42l-16.62-9.6a9.16 9.16 0 01-5.1-8.83zm0 32.41a.47.47 0 01.74-.44l16.63 9.61A9.17 9.17 0 0129-75.34v19.21a.47.47 0 01-.75.42l-16.62-9.6a9.17 9.17 0 01-5.1-8.84zm2.3 32.87l16.63 9.6a.47.47 0 010 .86l-16.63 9.6a9.15 9.15 0 01-10.2 0L-18-50a.47.47 0 010-.86l16.63-9.6a9.19 9.19 0 0110.15-.01zm-25.27-23.7L.14-93.78a.47.47 0 01.74.44v19.19a9.17 9.17 0 01-5.1 8.84l-16.62 9.6a.47.47 0 01-.75-.42v-19.21a9.17 9.17 0 015.1-8.83zm-5.1-23.57a9.19 9.19 0 015.1-8.84l16.63-9.6a.46.46 0 01.74.43v19.2a9.16 9.16 0 01-5.1 8.83l-16.62 9.6a.47.47 0 01-.75-.42zm0 63a.47.47 0 01.74-.43l16.63 9.6a9.18 9.18 0 015.1 8.84v19.2a.46.46 0 01-.74.43l-16.63-9.6a9.2 9.2 0 01-5.1-8.84zm2.31 32.88l16.62 9.6a.47.47 0 010 .86l-16.62 9.6a9.21 9.21 0 01-10.21 0l-16.63-9.6a.47.47 0 010-.86l16.62-9.6a9.21 9.21 0 0110.22 0zm-7.9-13.68a9.18 9.18 0 01-5.1 8.84l-16.63 9.6a.46.46 0 01-.74-.43v-19.2a9.18 9.18 0 015.1-8.84l16.63-9.6a.47.47 0 01.74.43zm-22.47-100.21a.46.46 0 01.74-.43l16.63 9.6a9.17 9.17 0 015.1 8.84v19.2a.46.46 0 01-.74.42l-16.63-9.6a9.16 9.16 0 01-5.1-8.83zm0 32.41a.47.47 0 01.74-.44l16.63 9.61a9.16 9.16 0 015.1 8.83v19.21a.46.46 0 01-.74.42l-16.63-9.6a9.17 9.17 0 01-5.1-8.84zm2.3 32.87l16.63 9.6a.47.47 0 010 .86l-16.63 9.6a9.15 9.15 0 01-10.2 0L-74.18-50a.47.47 0 010-.86l16.63-9.6a9.19 9.19 0 0110.2-.01zm-13-4.84L-77-55.71a.47.47 0 01-.75-.42v-19.21a9.16 9.16 0 015.11-8.83L-56-93.78a.47.47 0 01.74.44v19.19a9.18 9.18 0 01-5.11 8.84zm-17.37-42.43a9.18 9.18 0 015.11-8.84l16.63-9.6a.46.46 0 01.74.43v19.2a9.16 9.16 0 01-5.11 8.83L-77-88.12a.47.47 0 01-.75-.42v-19.2zm2.31 63.48l16.63 9.6a.46.46 0 010 .85l-16.63 9.6a9.15 9.15 0 01-10.2 0l-16.63-9.6a.46.46 0 010-.85l16.63-9.6a9.15 9.15 0 0110.2 0zm-30.37-81.49a.46.46 0 01.74-.43l16.63 9.6a9.16 9.16 0 015.1 8.83v19.21a.46.46 0 01-.74.42l-16.63-9.6a9.16 9.16 0 01-5.1-8.83zm2.31 32.88l16.62 9.6a.46.46 0 010 .85l-16.63 9.6a9.17 9.17 0 01-10.21 0l-16.63-9.6a.46.46 0 010-.85l16.62-9.6a9.17 9.17 0 0110.23 0zm-30.37-81.49a.46.46 0 01.74-.43l16.63 9.6a9.19 9.19 0 015.1 8.84v19.2a.47.47 0 01-.75.42l-16.62-9.6a9.16 9.16 0 01-5.1-8.83zm0 32.41a.47.47 0 01.74-.44l16.63 9.61a9.17 9.17 0 015.1 8.83v19.2a.47.47 0 01-.75.43l-16.62-9.6a9.17 9.17 0 01-5.1-8.84zm2.3 32.87l16.63 9.6a.47.47 0 010 .86L-131.54-89a9.15 9.15 0 01-10.2 0l-16.63-9.6a.47.47 0 010-.86l16.63-9.6a9.19 9.19 0 0110.2-.02zm-30.37-47.27a9.19 9.19 0 015.1-8.84l16.63-9.6a.46.46 0 01.74.43v19.2a9.16 9.16 0 01-5.1 8.83l-16.62 9.6a.47.47 0 01-.75-.42zm0 32.4a9.17 9.17 0 015.1-8.83l16.63-9.61a.47.47 0 01.74.44v19.19a9.17 9.17 0 01-5.1 8.84l-16.62 9.6a.47.47 0 01-.75-.43zm0 30.6a.47.47 0 01.74-.43l16.63 9.6a9.18 9.18 0 015.1 8.84v19.2a.46.46 0 01-.74.43l-16.63-9.6a9.2 9.2 0 01-5.1-8.84zm2.31 32.88l16.62 9.6a.47.47 0 010 .86l-16.63 9.6a9.21 9.21 0 01-10.21 0L-186.44-50a.47.47 0 010-.86l16.62-9.6a9.21 9.21 0 0110.22-.01zm-13-4.84l-16.63 9.6a.46.46 0 01-.74-.43v-19.2a9.18 9.18 0 015.1-8.84l16.63-9.6a.47.47 0 01.74.43v19.2a9.18 9.18 0 01-5.1 8.84zm-17.37-109a.46.46 0 01.74-.43l16.63 9.6a9.17 9.17 0 015.1 8.84v19.2a.46.46 0 01-.74.42l-16.63-9.6a9.16 9.16 0 01-5.1-8.83zm0 32.41a.47.47 0 01.74-.44l16.63 9.61a9.16 9.16 0 015.1 8.83v19.2a.46.46 0 01-.74.43l-16.63-9.6a9.17 9.17 0 01-5.1-8.84zm2.3 32.87l16.63 9.6a.47.47 0 010 .86L-187.67-89a9.15 9.15 0 01-10.2 0l-16.63-9.6a.47.47 0 010-.86l16.63-9.6a9.19 9.19 0 0110.2-.02zM-218-156.35a9.18 9.18 0 015.11-8.84l16.63-9.6a.46.46 0 01.74.43v19.2a9.16 9.16 0 01-5.11 8.83l-16.62 9.6a.47.47 0 01-.75-.42v-19.2zm0 32.4a9.16 9.16 0 015.11-8.83l16.63-9.61a.47.47 0 01.74.44v19.19a9.18 9.18 0 01-5.11 8.84l-16.62 9.6a.47.47 0 01-.75-.43v-19.2zm2.31 31.08l16.63 9.6a.46.46 0 010 .85l-16.63 9.6a9.15 9.15 0 01-10.2 0l-16.63-9.6a.46.46 0 010-.85l16.63-9.6a9.15 9.15 0 0110.16 0zm-30.37-14.88a9.16 9.16 0 015.1-8.83l16.63-9.6a.46.46 0 01.74.43v19.2a9.16 9.16 0 01-5.1 8.83l-16.63 9.6a.46.46 0 01-.74-.42v-19.21zm2.3 95.89l16.62 9.6a.46.46 0 010 .85l-16.65 9.61a9.15 9.15 0 01-10.2 0l-16.63-9.6a.46.46 0 010-.85l16.62-9.6a9.15 9.15 0 0110.2-.01zm-25.26-23.71l16.63-9.6a.46.46 0 01.74.43v19.2a9.17 9.17 0 01-5.1 8.83l-16.63 9.6a.46.46 0 01-.74-.42v-19.2a9.17 9.17 0 015.1-8.84zm-5.1-23.57a9.16 9.16 0 015.1-8.83l16.63-9.6a.47.47 0 01.74.43v19.2a9.19 9.19 0 01-5.1 8.84l-16.63 9.6a.46.46 0 01-.74-.43zm0 63a.46.46 0 01.74-.43l16.63 9.6a9.17 9.17 0 015.1 8.83v19.22a.47.47 0 01-.75.42l-16.62-9.6a9.16 9.16 0 01-5.1-8.83zm2.3 32.88l16.63 9.6a.46.46 0 010 .85l-16.63 9.6a9.15 9.15 0 01-10.2 0l-16.63-9.6a.46.46 0 010-.85l16.63-9.6a9.15 9.15 0 0110.16.01zm-7.9-13.68a9.16 9.16 0 01-5.1 8.83l-16.62 9.6a.47.47 0 01-.75-.42v-19.2a9.17 9.17 0 015.1-8.83l16.63-9.6a.46.46 0 01.74.43zm-22.51-100.21a.47.47 0 01.74-.43l16.63 9.6a9.16 9.16 0 015.1 8.83v19.2a.46.46 0 01-.74.43l-16.63-9.6a9.19 9.19 0 01-5.1-8.84zm0 32.41a.46.46 0 01.74-.43l16.63 9.6a9.17 9.17 0 015.1 8.84v19.2a.46.46 0 01-.74.42l-16.63-9.6a9.17 9.17 0 01-5.1-8.83zm2.31 32.88l16.62 9.6a.46.46 0 010 .85l-16.63 9.6a9.17 9.17 0 01-10.21 0l-16.63-9.61a.46.46 0 010-.85l16.62-9.6a9.17 9.17 0 0110.23.01zm-13-4.85l-16.63 9.6a.46.46 0 01-.74-.42v-19.2a9.17 9.17 0 015.1-8.84l16.63-9.6a.46.46 0 01.74.43v19.2a9.16 9.16 0 01-5.1 8.83zm-17.37-42.43a9.18 9.18 0 015.1-8.84l16.63-9.6a.47.47 0 01.74.43v19.2a9.17 9.17 0 01-5.1 8.84l-16.63 9.6a.46.46 0 01-.74-.43v-19.2zM-328 4.34l16.63 9.6a.47.47 0 010 .86L-328 24.4a9.19 9.19 0 01-10.2 0l-16.63-9.6a.47.47 0 010-.86l16.63-9.6a9.15 9.15 0 0110.2 0zm-30.37-14.87a9.19 9.19 0 015.11-8.84l16.63-9.6a.47.47 0 01.74.43v19.2A9.19 9.19 0 01-341-.5l-16.62 9.6a.47.47 0 01-.75-.43v-19.2z" fill="#2e4655"/>
  </svg>
