<svg xmlns="http://www.w3.org/2000/svg" xml:space="preserve" style="enable-background:new 0 0 100 229" viewBox="0 0 100 229">
  <path fill="#2E4655" d="M0 0h100v229H0z"/>
  <path fill="#385671" d="M94.7 10v35.4c0 6.1-1.7 11.2-8.5 14.6-6.8 3.3-23.8 13.5-27.2 15.2-3.4 1.7-3.4 1.7-3.4-1.7v-28c0-12.9 1.7-14.5 10.2-19.6 7.4-4.4 23.7-14 27.9-16.4.7-.5 1-.3 1 .5zM6.2 10v35.4c0 6.1 1.7 11.2 8.5 14.6 6.8 3.4 23.8 13.6 27.2 15.3 3.4 1.7 3.4 1.7 3.4-1.7v-28c0-12.9-1.6-14.6-10.1-19.7-7.4-4.4-23.7-14-27.9-16.4-.7-.5-1.1-.3-1.1.5zm88.5 56.1v35.4c0 6.1-1.7 11.2-8.5 14.6S62.4 129.7 59 131.4c-3.4 1.7-3.4 1.7-3.4-1.7v-28c0-12.9 1.7-14.6 10.2-19.7 7.4-4.4 23.7-14 27.9-16.4.7-.4 1-.2 1 .5zm-88.5 0v35.4c0 6.1 1.7 11.2 8.5 14.6s23.8 13.6 27.2 15.3c3.4 1.7 3.4 1.7 3.4-1.7v-28c0-12.9-1.6-14.6-10.1-19.7-7.4-4.4-23.7-14-27.9-16.4-.7-.4-1.1-.2-1.1.5zm88.5 152.7v-35.4c0-6.1-1.7-11.2-8.5-14.6-6.8-3.4-23.8-13.6-27.2-15.3-3.4-1.7-3.4-1.7-3.4 1.7v28c0 12.9 1.7 14.6 10.2 19.7 7.4 4.4 23.7 14 27.9 16.4.7.4 1 .2 1-.5zm-88.5 0v-35.4c0-6.1 1.7-11.2 8.5-14.6 6.8-3.4 23.8-13.6 27.2-15.3 3.4-1.7 3.4-1.7 3.4 1.7v28c0 12.9-1.7 14.6-10.2 19.7-7.4 4.4-23.7 14-27.9 16.4-.6.4-1 .2-1-.5zM10.9 0S35 14 40 17s11.5 5 20.2 0S89.5 0 89.5 0H10.9zM0 163c3 0 6.4-.9 10.2-3 8.8-5 29.2-17 29.2-17S19 131 10.2 126c-3.8-2.2-7.2-3-10.3-3l.1 40zm10.9 66S35 215 40 212s11.5-5 20.2 0 29.2 17 29.2 17H10.9zM100 123c-3 0-6.4.9-10.2 3-8.8 5-29.2 17-29.2 17s20.5 12 29.2 17c3.8 2.2 7.2 3 10.2 3v-40z"/>
</svg>
