<svg viewBox="0 0 24 24" xmlns="http://www.w3.org/2000/svg">
  <symbol id="github" fill="currentcolor" viewBox="0 0 24 24">
    <path d="M12 .297c-6.63 0-12 5.373-12 12 0 5.303 3.438 9.8 8.205 11.385.6.113.82-.258.82-.577 0-.285-.01-1.04-.015-2.04-3.338.724-4.042-1.61-4.042-1.61C4.422 18.07 3.633 17.7 3.633 17.7c-1.087-.744.084-.729.084-.729 1.205.084 1.838 1.236 1.838 1.236 1.07 1.835 2.809 1.305 3.495.998.108-.776.417-1.305.76-1.605-2.665-.3-5.466-1.332-5.466-5.93 0-1.31.465-2.38 1.235-3.22-.135-.303-.54-1.523.105-3.176 0 0 1.005-.322 3.3 1.23.96-.267 1.98-.399 3-.405 1.02.006 2.04.138 3 .405 2.28-1.552 3.285-1.23 3.285-1.23.645 1.653.24 2.873.12 3.176.765.84 1.23 1.91 1.23 3.22 0 4.61-2.805 5.625-5.475 5.92.42.36.81 1.096.81 2.22 0 1.606-.015 2.896-.015 3.286 0 .315.21.69.825.57C20.565 22.092 24 17.592 24 12.297c0-6.627-5.373-12-12-12"/>
  </symbol>
  <symbol id="search" fill="none" stroke="currentColor" stroke-width="2" stroke-linecap="round" stroke-linejoin="round" viewBox="0 0 24 24">
    <circle cx="11" cy="11" r="8"></circle>
    <line x1="21" y1="21" x2="16.65" y2="16.65"></line>
  </symbol>
  <symbol id="menu" fill="none" stroke="currentColor" stroke-width="2" stroke-linecap="round" stroke-linejoin="round" viewBox="0 0 24 24">
    <line x1="3" y1="12" x2="21" y2="12"></line>
    <line x1="3" y1="6" x2="21" y2="6"></line>
    <line x1="3" y1="18" x2="21" y2="18"></line>
  </symbol>
  <symbol id="twitter" fill="currentcolor" viewBox="0 0 24 24">
    <path d="M23.953 4.57a10 10 0 01-2.825.775 4.958 4.958 0 002.163-2.723c-.951.555-2.005.959-3.127 1.184a4.92 4.92 0 00-8.384 4.482C7.69 8.095 4.067 6.13 1.64 3.162a4.822 4.822 0 00-.666 2.475c0 1.71.87 3.213 2.188 4.096a4.904 4.904 0 01-2.228-.616v.06a4.923 4.923 0 003.946 4.827 4.996 4.996 0 01-2.212.085 4.936 4.936 0 004.604 3.417 9.867 9.867 0 01-6.102 2.105c-.39 0-.779-.023-1.17-.067a13.995 13.995 0 007.557 2.209c9.053 0 13.998-7.496 13.998-13.985 0-.21 0-.42-.015-.63A9.935 9.935 0 0024 4.59z"/>
  </symbol>
  <symbol id="mastodon" fill="currentcolor" viewBox="0 0 24 24">
    <path d="M23.268 5.313c-.35-2.578-2.617-4.61-5.304-5.004C17.51.242 15.792 0 11.813 0h-.03c-3.98 0-4.835.242-5.288.309C3.882.692 1.496 2.518.917 5.127.64 6.412.61 7.837.661 9.143c.074 1.874.088 3.745.26 5.611.118 1.24.325 2.47.62 3.68.55 2.237 2.777 4.098 4.96 4.857 2.336.792 4.849.923 7.256.38.265-.061.527-.132.786-.213.585-.184 1.27-.39 1.774-.753a.057.057 0 0 0 .023-.043v-1.809a.052.052 0 0 0-.02-.041.053.053 0 0 0-.046-.01 20.282 20.282 0 0 1-4.709.545c-2.73 0-3.463-1.284-3.674-1.818a5.593 5.593 0 0 1-.319-1.433.053.053 0 0 1 .066-.054c1.517.363 3.072.546 4.632.546.376 0 .75 0 1.125-.01 1.57-.044 3.224-.124 4.768-.422.038-.008.077-.015.11-.024 2.435-.464 4.753-1.92 4.989-5.604.008-.145.03-1.52.03-1.67.002-.512.167-3.63-.024-5.545zm-3.748 9.195h-2.561V8.29c0-1.309-.55-1.976-1.67-1.976-1.23 0-1.846.79-1.846 2.35v3.403h-2.546V8.663c0-1.56-.617-2.35-1.848-2.35-1.112 0-1.668.668-1.67 1.977v6.218H4.822V8.102c0-1.31.337-2.35 1.011-3.12.696-.77 1.608-1.164 2.74-1.164 1.311 0 2.302.5 2.962 1.498l.638 1.06.638-1.06c.66-.999 1.65-1.498 2.96-1.498 1.13 0 2.043.395 2.74 1.164.675.77 1.012 1.81 1.012 3.12z"/>
  </symbol>
  <symbol id="discord" fill="currentcolor" viewBox="0 0 24 24">
    <path d="M20.317 4.3698a19.7913 19.7913 0 00-4.8851-1.5152.0741.0741 0 00-.0785.0371c-.211.3753-.4447.8648-.6083 1.2495-1.8447-.2762-3.68-.2762-5.4868 0-.1636-.3933-.4058-.8742-.6177-1.2495a.077.077 0 00-.0785-.037 19.7363 19.7363 0 00-4.8852 1.515.0699.0699 0 00-.0321.0277C.5334 9.0458-.319 13.5799.0992 18.0578a.0824.0824 0 00.0312.0561c2.0528 1.5076 4.0413 2.4228 5.9929 3.0294a.0777.0777 0 00.0842-.0276c.4616-.6304.8731-1.2952 1.226-1.9942a.076.076 0 00-.0416-.1057c-.6528-.2476-1.2743-.5495-1.8722-.8923a.077.077 0 01-.0076-.1277c.1258-.0943.2517-.1923.3718-.2914a.0743.0743 0 01.0776-.0105c3.9278 1.7933 8.18 1.7933 12.0614 0a.0739.0739 0 01.0785.0095c.1202.099.246.1981.3728.2924a.077.077 0 01-.0066.1276 12.2986 12.2986 0 01-1.873.8914.0766.0766 0 00-.0407.1067c.3604.698.7719 1.3628 1.225 1.9932a.076.076 0 00.0842.0286c1.961-.6067 3.9495-1.5219 6.0023-3.0294a.077.077 0 00.0313-.0552c.5004-5.177-.8382-9.6739-3.5485-13.6604a.061.061 0 00-.0312-.0286zM8.02 15.3312c-1.1825 0-2.1569-1.0857-2.1569-2.419 0-1.3332.9555-2.4189 2.157-2.4189 1.2108 0 2.1757 1.0952 2.1568 2.419 0 1.3332-.9555 2.4189-2.1569 2.4189zm7.9748 0c-1.1825 0-2.1569-1.0857-2.1569-2.419 0-1.3332.9554-2.4189 2.1569-2.4189 1.2108 0 2.1757 1.0952 2.1568 2.419 0 1.3332-.946 2.4189-2.1568 2.4189Z"/>
  </symbol>
  <symbol id="opencollective" fill="currentcolor" viewBox="0 0 24 24">
    <path d="M12 0C5.373 0 0 5.373 0 12s5.373 12 12 12c2.54 0 4.894-.79 6.834-2.135l-3.107-3.109a7.715 7.715 0 1 1 0-13.512l3.107-3.109A11.943 11.943 0 0 0 12 0zm9.865 5.166l-3.109 3.107A7.67 7.67 0 0 1 19.715 12a7.682 7.682 0 0 1-.959 3.727l3.109 3.107A11.943 11.943 0 0 0 24 12c0-2.54-.79-4.894-2.135-6.834z"/>
  </symbol>
  <symbol id="moon" stroke="currentColor" stroke-width="2" stroke-linecap="round" stroke-linejoin="round" viewBox="0 0 24 24">
    <path d="M21 12.79A9 9 0 1 1 11.21 3 7 7 0 0 0 21 12.79z"></path>
  </symbol>
  <symbol id="sun" fill="none" stroke="currentColor" stroke-width="2" stroke-linecap="round" stroke-linejoin="round" viewBox="0 0 24 24">
    <circle cx="12" cy="12" r="5"></circle>
    <line x1="12" y1="1" x2="12" y2="3"></line>
    <line x1="12" y1="21" x2="12" y2="23"></line>
    <line x1="4.22" y1="4.22" x2="5.64" y2="5.64"></line>
    <line x1="18.36" y1="18.36" x2="19.78" y2="19.78"></line>
    <line x1="1" y1="12" x2="3" y2="12"></line>
    <line x1="21" y1="12" x2="23" y2="12"></line>
    <line x1="4.22" y1="19.78" x2="5.64" y2="18.36"></line>
    <line x1="18.36" y1="5.64" x2="19.78" y2="4.22"></line>
  </symbol>
  <symbol id="arrow-down-right" fill="none" stroke="currentColor" stroke-width="2" stroke-linecap="round" stroke-linejoin="round" viewBox="0 0 24 24">
    <line x1="7" y1="7" x2="17" y2="17"></line>
    <polyline points="17 7 17 17 7 17"></polyline>
  </symbol>
  <symbol id="info" fill="none" stroke="currentColor" stroke-width="2" stroke-linecap="round" stroke-linejoin="round" viewBox="0 0 24 24">
    <circle cx="12" cy="12" r="10"></circle>
    <line x1="12" y1="8" x2="12" y2="12"></line>
    <line x1="12" y1="16" x2="12.01" y2="16"></line>
  </symbol>
  <symbol id="danger" fill="none" stroke="currentColor" stroke-width="2" stroke-linecap="round" stroke-linejoin="round" viewBox="0 0 24 24">
    <polygon points="7.86 2 16.14 2 22 7.86 22 16.14 16.14 22 7.86 22 2 16.14 2 7.86 7.86 2"></polygon>
    <line x1="12" y1="8" x2="12" y2="12"></line>
    <line x1="12" y1="16" x2="12.01" y2="16"></line>
  </symbol>
  <symbol id="warn" fill="none" stroke="currentColor" stroke-width="2" stroke-linecap="round" stroke-linejoin="round" viewBox="0 0 24 24">
    <path d="M10.29 3.86L1.82 18a2 2 0 0 0 1.71 3h16.94a2 2 0 0 0 1.71-3L13.71 3.86a2 2 0 0 0-3.42 0z"></path>
    <line x1="12" y1="9" x2="12" y2="13"></line>
    <line x1="12" y1="17" x2="12.01" y2="17"></line>
  </symbol>
  <symbol id="arrow-right" fill="none" stroke="currentColor" stroke-width="2" stroke-linecap="round" stroke-linejoin="round"  viewBox="0 0 24 24">
    <line x1="5" y1="12" x2="19" y2="12"></line>
    <polyline points="12 5 19 12 12 19"></polyline>
  </symbol>
  <symbol id="arrow-right-circle" fill="none" stroke="currentColor" stroke-width="2" stroke-linecap="round" stroke-linejoin="round"  viewBox="0 0 24 24">
    <circle cx="12" cy="12" r="10"></circle>
    <polyline points="12 16 16 12 12 8"></polyline>
    <line x1="8" y1="12" x2="16" y2="12"></line>
  </symbol>
  <symbol id="arrow-left-circle" fill="none" stroke="currentColor" stroke-width="2" stroke-linecap="round" stroke-linejoin="round" viewBox="0 0 24 24">
    <circle cx="12" cy="12" r="10"></circle>
    <polyline points="12 8 8 12 12 16"></polyline>
    <line x1="16" y1="12" x2="8" y2="12"></line>
  </symbol>
  <symbol id="more" fill="none" stroke="currentColor" stroke-width="2" stroke-linecap="round" stroke-linejoin="round" viewBox="0 0 24 24">
    <circle cx="12" cy="12" r="1"></circle>
    <circle cx="12" cy="5" r="1"></circle>
    <circle cx="12" cy="19" r="1"></circle>
  </symbol>
  <symbol id="more-v" fill="none" stroke="currentColor" stroke-width="2" stroke-linecap="round" stroke-linejoin="round" viewBox="0 0 24 24">
    <circle cx="12" cy="12" r="1"></circle>
    <circle cx="19" cy="12" r="1"></circle>
    <circle cx="5" cy="12" r="1"></circle>
  </symbol>
  <symbol id="command" width="24" height="24" fill="none" stroke="currentColor" stroke-width="2" stroke-linecap="round" stroke-linejoin="round" viewBox="0 0 24 24">
    <path d="M18 3a3 3 0 0 0-3 3v12a3 3 0 0 0 3 3 3 3 0 0 0 3-3 3 3 0 0 0-3-3H6a3 3 0 0 0-3 3 3 3 0 0 0 3 3 3 3 0 0 0 3-3V6a3 3 0 0 0-3-3 3 3 0 0 0-3 3 3 3 0 0 0 3 3h12a3 3 0 0 0 3-3 3 3 0 0 0-3-3z" />
  </symbol>
  <symbol id="option" width="24" height="24" fill="none" stroke="currentColor" stroke-width="2" stroke-linecap="round" stroke-linejoin="round" viewBox="0 0 24 24">
    <path d="M3 3h6l6 18h6"></path>
    <path d="M14 3h7"></path>
  </symbol>
  <symbol id="shift" width="24" height="24" fill="none" stroke="currentColor" stroke-width="2" stroke-linecap="round" stroke-linejoin="round" viewBox="0 0 24 24">
    <path d="M9 21V10H5l7-7 7 7h-4v11z"></path>
  </symbol>
  <symbol id="chevron-right" width="24" height="24" fill="none" stroke="currentColor" stroke-width="2" stroke-linecap="round" stroke-linejoin="round" viewBox="0 0 24 24">
    <polyline points="9 18 15 12 9 6" />
  </symbol>
  <symbol id="supports" width="24" height="24" fill="none" stroke="currentColor" stroke-width="2" stroke-linecap="round" stroke-linejoin="round" viewBox="0 0 24 24">
    <path d="M10 2v7.527a2 2 0 0 1-.211.896L4.72 20.55a1 1 0 0 0 .9 1.45h12.76a1 1 0 0 0 .9-1.45l-5.069-10.127A2 2 0 0 1 14 9.527V2"></path>
    <path d="M8.5 2h7"></path>
    <path d="M7 16h10"></path>
  </symbol>
  <symbol id="true" width="24" height="24" fill="none" stroke="currentColor" stroke-width="2" stroke-linecap="round" stroke-linejoin="round" viewBox="0 0 24 24">
    <path d="M12 22c5.523 0 10-4.477 10-10S17.523 2 12 2 2 6.477 2 12s4.477 10 10 10z"></path>
    <path d="m9 12 2 2 4-4"></path>
  </symbol>
  <symbol id="false" width="24" height="24" fill="none" stroke="currentColor" stroke-width="2" stroke-linecap="round" stroke-linejoin="round" viewBox="0 0 24 24">
    <polygon points="7.86 2 16.14 2 22 7.86 22 16.14 16.14 22 7.86 22 2 16.14 2 7.86 7.86 2"></polygon>
    <line x1="15" y1="9" x2="9" y2="15"></line>
    <line x1="9" y1="9" x2="15" y2="15"></line>
  </symbol>
  <symbol id="chrome" width="24" height="24" stroke="none" fill="currentColor" viewBox="0 0 100 100">
    <path d="M50 5a45 45 0 0 1 40 25l-37-2c-11-1-21 5-24 15L15 22A45 45 0 0 1 50 5zM12 25l17 34c5 9 15 15 26 13L43 94a45 45 0 0 1-31-69zm80 9a45 45 0 0 1-45 61l21-31c6-9 5-21-1-29zm-42 1a15 15 0 1 1-15 15 15 15 0 0 1 15-15z"/>
  </symbol>
  <symbol id="edge" width="24" height="24" stroke="none" fill="currentColor" viewBox="0 0 100 100">
      <path d="M61 94c-11 0-21-8-24-19a26 26 0 0 1 3-20l1-1v1c2 8 6 14 14 18 10 5 20 5 31 0 1-1 2-2 3-1s0 3-1 4a37 37 0 0 1-26 18h-1z"/>
      <path d="M52 42c2 1-11-10-28-8-6 1-19 6-18 24 2 32 28 36 37 37a1 1 0 0 0 1-1 1 1 0 0 0 0-1c-5-4-18-12-15-28 3-14 13-25 23-23z"/>
      <path d="M62 62c4 1 10 2 19 0a20 20 0 0 0 13-16C96 29 81 6 56 5 20 4 11 27 9 33c4-3 21-14 42-1 12 9 10 18 8 23a5 5 0 0 0 3 7z"/>
  </symbol>
  <symbol id="firefox" width="24" height="24" stroke="none" fill="currentColor" viewBox="0 0 16 16">
    <path d="M14.389 3.133a7.96 7.96 0 0 0-.696-.795 6.28 6.28 0 0 0-.636-.584c.129.113.253.231.37.357a4.48 4.48 0 0 1 .976 1.625c.418 1.263.39 2.844-.407 4.085-.95 1.48-2.498 2.21-4.171 2.174a3.38 3.38 0 0 1-.218-.006c-3.003-.18-3.76-3.252-2.198-4.58-.421-.09-1.213.087-1.764.91-.494.737-.467 1.877-.161 2.685A4.316 4.316 0 0 1 5.09 7.74c-.395-2.663 1.398-4.935 3.042-5.497-.887-.773-3.11-.72-4.764.493-.964.708-1.654 1.714-2.017 2.913.053-.673.308-1.678.831-2.704C1.63 3.23.924 4.135.576 4.972.074 6.18-.103 7.624.056 8.998l.037.309A8.01 8.01 0 1 0 14.39 3.133Zm.014.603a4.48 4.48 0 0 0-.976-1.625c-.51-.55-1.146-.97-1.82-1.295A8.109 8.109 0 0 0 9.82.184a7.983 7.983 0 0 0-3.313-.02C5.37.404 4.37.894 3.739 1.508c.474-.288 1.135-.52 1.606-.64 2.186-.55 4.593.046 6.234 1.617.33.315.626.669.866 1.058.98 1.588.887 3.584.123 4.761-.567.875-1.781 1.696-2.914 1.687 1.738.09 3.359-.64 4.342-2.17.798-1.241.825-2.822.407-4.085Z"/>
  </symbol>
  <symbol id="safari" width="24" height="24" stroke="none" fill="currentColor" viewBox="0 0 100 100">
    <path d="M52.66 49.85a3 3 0 0 1-2.91 3.21 3.06 3.06 0 1 1-.25-6.12 3 3 0 0 1 3.16 2.91zm.75 2.91L71 23.58C68.63 25.79 46.63 46 46 47.09L28.5 76.22c2.31-2.16 24.36-22.5 24.91-23.46zM85.91 50a35.75 35.75 0 0 1-5.22 18.63 23.71 23.71 0 0 0-3-1.75.66.66 0 0 0-.65.65c0 .65 2.36 1.86 3 2.21a36.11 36.11 0 0 1-21.45 15.12l-.8-3.37c-.06-.45-.36-.5-.76-.5s-.55.5-.5.75l.81 3.41a35.59 35.59 0 0 1-7.34.76 36.05 36.05 0 0 1-18.68-5.28A29 29 0 0 0 33.53 77a.66.66 0 0 0-.65-.65c-.7 0-2.21 3-2.66 3.62a36.13 36.13 0 0 1-15.17-21.7l3.47-.75a.66.66 0 0 0 .5-.75c0-.35-.5-.56-.81-.5L14.8 57a35.69 35.69 0 0 1 4.77-26 23.79 23.79 0 0 0 3.31 2 .63.63 0 0 0 .66-.6c0-.71-2.66-2.06-3.27-2.46A36.18 36.18 0 0 1 42 15l.75 3.37a.66.66 0 0 0 .75.5c.35 0 .56-.5.5-.81l-.75-3.31a37.07 37.07 0 0 1 6.75-.66 36 36 0 0 1 19 5.47 19.08 19.08 0 0 0-2 3.27.62.62 0 0 0 .6.65c.71 0 2.06-2.61 2.41-3.22a35.94 35.94 0 0 1 14.9 21.45l-2.82.6c-.45.1-.5.4-.5.8s.5.56.76.51l2.86-.62a36.83 36.83 0 0 1 .7 7zm4.27 0A40.18 40.18 0 1 0 50 90.18 40.17 40.17 0 0 0 90.18 50zM95 50A45 45 0 1 1 50 5a45 45 0 0 1 45 45z"/>
  </symbol>
</svg>
