<svg xmlns="http://www.w3.org/2000/svg" viewBox="50 50 195 195">
  <path d="M149.1 105.42l16.63-9.6a.46.46 0 000-.85l-16.63-9.61a9.19 9.19 0 00-10.2 0L122.27 95a.46.46 0 000 .85l16.63 9.6a9.15 9.15 0 0010.2 0zM136.1 110.26l-16.62-9.6a.47.47 0 00-.75.43v19.2a9.2 9.2 0 005.1 8.84l16.63 9.6a.46.46 0 00.74-.43v-19.2a9.18 9.18 0 00-5.1-8.84z" fill="#dbf1f7"/>
  <path d="M95.77 112.93l16.63 9.6a.47.47 0 00.74-.43v-19.2a9.17 9.17 0 00-5.1-8.84l-16.63-9.6a.46.46 0 00-.74.43v19.2a9.18 9.18 0 005.1 8.84z" fill="#c2e6f1"/>
  <path d="M94.21 79.62l16.62 9.6a9.21 9.21 0 0010.21 0l16.62-9.6a.47.47 0 000-.86L121 69.16a9.17 9.17 0 00-10.21 0l-16.59 9.6a.47.47 0 00.01.86zM150.34 79.62l16.66 9.6a9.21 9.21 0 0010.21 0l16.62-9.6a.47.47 0 000-.86l-16.63-9.6a9.17 9.17 0 00-10.21 0l-16.63 9.6a.47.47 0 00-.02.86zM180 94.06a9.17 9.17 0 00-5.1 8.84v19.2a.47.47 0 00.74.43l16.63-9.6a9.18 9.18 0 005.1-8.84v-19.2a.46.46 0 00-.74-.43L180 94.06zM119.47 187.34l16.63-9.6a9.18 9.18 0 005.1-8.84v-19.2a.46.46 0 00-.74-.43l-16.63 9.6a9.2 9.2 0 00-5.1 8.84v19.2a.47.47 0 00.74.43z" fill="#dbf1f7"/>
  <path d="M174.86 167.71v19.2a.47.47 0 00.74.43l16.63-9.6a9.18 9.18 0 005.1-8.84v-19.2a.46.46 0 00-.74-.43l-16.59 9.6a9.18 9.18 0 00-5.14 8.84zM108 158.87l-16.63-9.6a.46.46 0 00-.74.43v19.2a9.18 9.18 0 005.1 8.84l16.63 9.6a.47.47 0 00.74-.43v-19.2a9.18 9.18 0 00-5.1-8.84zM140.46 181.68l-16.63 9.6a9.17 9.17 0 00-5.1 8.83v19.2a.46.46 0 00.74.43l16.63-9.6a9.16 9.16 0 005.1-8.83V182.1a.46.46 0 00-.74-.42zM108 191.28l-16.63-9.6a.46.46 0 00-.74.42v19.21a9.16 9.16 0 005.1 8.83l16.63 9.6a.46.46 0 00.74-.43v-19.2a9.16 9.16 0 00-5.1-8.83zM80 142.67l-16.62-9.6a.47.47 0 00-.75.42v19.21a9.16 9.16 0 005.11 8.83l16.63 9.61a.47.47 0 00.74-.44v-19.19a9.18 9.18 0 00-5.11-8.84zM164.17 191.28l-16.63-9.6a.46.46 0 00-.74.42v19.21a9.16 9.16 0 005.1 8.83l16.63 9.6a.46.46 0 00.74-.43v-19.2a9.17 9.17 0 00-5.1-8.83zM196.59 181.68l-16.59 9.6a9.16 9.16 0 00-5.1 8.83v19.2a.46.46 0 00.74.43l16.63-9.6a9.16 9.16 0 005.1-8.83V182.1a.46.46 0 00-.78-.42zM225.4 133.49a.47.47 0 00-.75-.42l-16.65 9.6a9.18 9.18 0 00-5.11 8.84v19.19a.47.47 0 00.74.44l16.63-9.61a9.16 9.16 0 005.11-8.83z" fill="#61cae6"/>
  <path d="M177.17 154l16.62-9.6a.47.47 0 000-.86L177.17 134a9.21 9.21 0 00-10.17 0l-16.63 9.6a.47.47 0 000 .86L167 154a9.21 9.21 0 0010.21 0z" fill="#dbf1f7"/>
  <path d="M147.54 138.73l16.63-9.6a9.2 9.2 0 005.1-8.84v-19.2a.47.47 0 00-.75-.43l-16.62 9.6a9.18 9.18 0 00-5.1 8.84v19.2a.46.46 0 00.74.43zM137.66 144.43a.47.47 0 000-.86L121 134a9.21 9.21 0 00-10.21 0l-16.63 9.6a.47.47 0 000 .86l16.62 9.6A9.21 9.21 0 00121 154z" fill="#c2e6f1"/>
  <path d="M109.6 128.23a.47.47 0 000-.86l-16.6-9.6a9.15 9.15 0 00-10.2 0l-16.63 9.6a.47.47 0 000 .86l16.63 9.6a9.19 9.19 0 0010.2 0z" fill="#dbf1f7"/>
  <path d="M164.17 158.87l-16.63-9.6a.46.46 0 00-.74.43v19.2a9.18 9.18 0 005.1 8.84l16.63 9.6a.47.47 0 00.74-.43v-19.2a9.2 9.2 0 00-5.1-8.84zM205.23 137.83l16.63-9.6a.47.47 0 000-.86l-16.63-9.6a9.15 9.15 0 00-10.2 0l-16.63 9.6a.47.47 0 000 .86l16.63 9.6a9.19 9.19 0 0010.2 0z" fill="#c2e6f1"/>
</svg>
