<?xml version="1.0" standalone="no"?>
<!DOCTYPE svg PUBLIC "-//W3C//DTD SVG 20010904//EN"
 "http://www.w3.org/TR/2001/REC-SVG-20010904/DTD/svg10.dtd">
<svg version="1.0" xmlns="http://www.w3.org/2000/svg"
 width="700.000000pt" height="700.000000pt" viewBox="0 0 700.000000 700.000000"
 preserveAspectRatio="xMidYMid meet">
<metadata>
Created by potrace 1.14, written by Peter Selinger 2001-2017
</metadata>
<g transform="translate(0.000000,700.000000) scale(0.100000,-0.100000)"
fill="#000000" stroke="none">
<path d="M2275 6355 c-23 -7 -86 -39 -140 -70 -55 -32 -154 -89 -220 -128 -66
-38 -168 -97 -228 -131 -63 -36 -106 -67 -105 -74 3 -16 597 -363 671 -393 60
-24 157 -26 217 -4 25 9 74 33 110 54 36 21 85 50 110 63 25 14 95 55 157 91
62 36 134 78 160 93 92 51 153 89 153 95 0 11 -633 379 -687 400 -42 16 -153
18 -198 4z"/>
<path d="M4294 6356 c-36 -11 -92 -41 -179 -93 -11 -7 -29 -17 -40 -22 -86
-43 -480 -280 -480 -289 0 -6 56 -44 125 -83 69 -40 139 -80 155 -90 17 -10
53 -31 80 -46 28 -15 58 -32 67 -38 113 -68 245 -139 275 -147 52 -15 132 -12
185 5 42 15 166 82 302 165 37 23 69 42 71 42 2 0 43 23 92 51 48 28 104 60
123 71 76 43 100 60 100 71 0 10 -203 132 -419 253 -31 17 -90 51 -131 75 -41
25 -95 53 -120 63 -57 23 -153 28 -206 12z"/>
<path d="M3295 5775 c-27 -7 -129 -59 -225 -115 -96 -56 -193 -112 -215 -125
-168 -95 -255 -147 -264 -159 -11 -13 57 -57 264 -171 28 -15 61 -35 75 -44
53 -34 66 -41 86 -50 18 -8 129 -72 174 -101 62 -40 122 -55 205 -53 48 2 75
10 135 41 103 53 601 341 623 360 22 19 42 5 -274 188 -423 246 -463 261 -584
229z"/>
<path d="M1464 5757 c-3 -8 -4 -191 -2 -408 l3 -394 26 -55 c31 -67 91 -127
167 -169 31 -17 77 -43 102 -58 25 -14 63 -36 85 -48 22 -12 118 -68 213 -123
96 -56 181 -103 190 -104 16 -3 17 29 18 382 1 439 -2 465 -77 553 -42 48 -67
65 -449 284 -291 168 -269 157 -276 140z"/>
<path d="M5040 5633 c-129 -74 -251 -144 -270 -155 -164 -94 -202 -123 -242
-189 -41 -66 -45 -109 -44 -506 1 -210 4 -385 8 -389 4 -4 26 5 48 20 22 14
41 26 43 26 18 0 581 337 610 365 21 20 51 63 67 97 l29 61 1 398 c0 219 -3
400 -8 403 -4 2 -113 -56 -242 -131z"/>
<path d="M2474 5178 c-3 -5 -6 -184 -6 -396 0 -376 1 -389 23 -447 35 -93 92
-141 328 -275 112 -63 224 -127 250 -141 25 -15 79 -46 119 -69 40 -23 76 -39
79 -36 4 4 7 183 6 399 -1 429 -1 432 -62 520 -36 53 -76 80 -341 233 -365
210 -389 223 -396 212z"/>
<path d="M3965 5014 c-154 -90 -296 -172 -315 -181 -54 -27 -119 -98 -147
-161 l-26 -57 -1 -393 c-1 -216 2 -398 5 -404 6 -10 28 1 150 72 14 8 63 37
110 63 46 26 91 52 99 57 8 5 71 42 140 81 170 96 195 115 234 168 66 89 68
105 67 511 0 201 0 375 -1 388 0 14 -6 22 -17 21 -10 0 -144 -74 -298 -165z"/>
<path d="M1320 4618 c-25 -4 -56 -11 -70 -15 -47 -15 -680 -387 -677 -397 4
-11 86 -61 397 -238 96 -55 191 -111 210 -123 50 -34 136 -55 200 -51 50 4
129 27 155 47 8 6 130 76 240 139 17 10 80 46 141 82 61 36 117 68 125 71 37
19 103 64 106 73 2 6 -47 41 -109 76 -221 127 -454 261 -488 283 -75 46 -158
65 -230 53z"/>
<path d="M5346 4618 c-65 -8 -84 -18 -391 -196 -337 -194 -355 -205 -355 -216
1 -17 635 -378 699 -399 94 -31 186 -14 299 55 34 21 64 38 66 38 2 0 33 17
67 38 35 22 84 50 109 64 122 68 316 181 327 192 21 19 18 21 -194 143 -18 10
-129 74 -248 142 -236 136 -281 152 -379 139z"/>
<path d="M2265 4022 c-27 -10 -111 -53 -185 -97 -178 -103 -211 -123 -235
-135 -11 -6 -29 -16 -40 -23 -11 -7 -67 -38 -123 -71 -56 -32 -102 -64 -102
-71 0 -10 141 -95 571 -342 125 -72 206 -88 301 -59 38 11 654 356 696 389 15
12 2 31 -37 50 -14 7 -118 67 -231 132 -113 65 -223 128 -246 141 -22 12 -58
33 -80 46 -89 56 -202 71 -289 40z"/>
<path d="M4305 4031 c-38 -10 -58 -20 -257 -135 -90 -51 -224 -128 -298 -171
-157 -90 -167 -97 -148 -112 7 -6 159 -95 337 -197 361 -206 389 -217 497
-199 64 11 116 39 559 298 50 29 109 63 132 76 24 13 43 29 43 36 0 14 -653
388 -700 400 -45 12 -126 14 -165 4z"/>
<path d="M457 4013 c-3 -5 -4 -186 -3 -403 l1 -395 26 -55 c32 -68 89 -127
165 -170 93 -52 110 -62 267 -154 82 -47 150 -86 151 -86 2 0 41 -22 87 -50
46 -27 90 -50 97 -50 11 0 12 78 10 408 -3 406 -3 407 -27 455 -44 89 -92 127
-336 267 -126 73 -255 146 -285 163 -30 17 -72 41 -92 54 -39 24 -54 28 -61
16z"/>
<path d="M6230 3996 c-20 -13 -58 -36 -85 -50 -28 -15 -71 -39 -96 -54 -25
-15 -134 -78 -242 -140 -216 -125 -261 -164 -297 -258 -19 -52 -20 -77 -20
-449 0 -295 3 -395 12 -395 6 0 102 52 212 116 229 133 230 133 351 202 101
58 140 90 178 148 49 74 53 118 53 524 -1 416 2 401 -66 356z"/>
<path d="M1460 3413 c0 -16 -1 -192 -1 -393 -1 -353 0 -367 22 -424 29 -78 85
-137 184 -194 44 -26 89 -52 100 -59 11 -6 36 -20 55 -31 19 -10 112 -63 205
-118 224 -130 225 -131 233 -117 4 7 7 186 6 400 -1 350 -3 392 -19 433 -35
86 -76 131 -179 191 -265 155 -589 339 -597 339 -5 0 -9 -12 -9 -27z"/>
<path d="M3140 3376 c-58 -35 -202 -118 -320 -186 -244 -140 -295 -183 -330
-276 -21 -57 -22 -72 -22 -429 1 -203 1 -381 1 -394 1 -20 4 -22 29 -16 15 3
34 12 42 19 8 7 51 33 95 58 353 198 513 294 544 327 91 100 97 132 96 586 -1
315 -3 370 -16 372 -7 1 -61 -27 -119 -61z"/>
<path d="M3479 3438 c-7 -13 -3 -772 3 -798 22 -88 93 -184 164 -220 16 -8 85
-48 153 -87 67 -40 124 -73 126 -73 2 0 41 -22 87 -49 160 -94 173 -102 215
-123 24 -12 45 -19 49 -16 3 4 6 181 5 395 0 418 -1 425 -55 511 -23 37 -104
112 -121 112 -4 0 -33 15 -64 34 -31 19 -72 43 -91 54 -19 11 -129 74 -245
141 -189 109 -222 127 -226 119z"/>
<path d="M5135 3363 c-71 -41 -146 -85 -165 -96 -19 -10 -72 -41 -118 -68 -45
-27 -85 -49 -87 -49 -3 0 -29 -16 -59 -35 -30 -19 -59 -35 -64 -35 -20 0 -103
-95 -129 -147 l-28 -58 -1 -402 c-1 -333 1 -403 12 -403 12 0 162 83 334 185
30 18 75 44 100 57 233 130 291 176 334 268 20 43 21 59 21 449 0 261 -4 405
-10 407 -5 2 -68 -31 -140 -73z"/>
<path d="M1465 2270 c-3 -5 -6 -182 -6 -392 -1 -335 1 -389 16 -433 34 -98 81
-147 216 -223 52 -29 101 -57 109 -62 30 -19 165 -96 180 -103 8 -3 71 -40
140 -81 80 -47 129 -71 135 -65 15 15 14 741 -1 802 -15 57 -52 122 -91 159
-15 14 -84 59 -153 98 -69 40 -138 80 -155 90 -16 9 -101 58 -188 108 -204
119 -195 114 -202 102z"/>
<path d="M3173 2230 c-45 -26 -112 -65 -150 -85 -37 -21 -74 -42 -81 -48 -7
-5 -34 -22 -60 -36 -305 -166 -363 -214 -402 -335 -14 -45 -18 -802 -4 -816 5
-5 82 33 174 87 91 52 183 105 205 118 321 182 338 195 385 291 l33 68 1 398
c1 269 -2 399 -9 402 -6 2 -48 -18 -92 -44z"/>
<path d="M3479 2268 c-1 -7 -2 -179 -3 -383 -1 -262 2 -384 10 -418 16 -61 54
-126 96 -163 26 -23 363 -223 556 -329 20 -12 58 -33 84 -48 31 -19 49 -24 53
-17 4 6 7 182 7 390 -1 400 -4 429 -49 502 -23 37 -101 118 -114 118 -4 0
-117 64 -251 142 -134 77 -268 155 -298 171 -30 16 -59 34 -64 38 -14 13 -26
11 -27 -3z"/>
<path d="M5100 2179 c-96 -56 -191 -111 -210 -122 -19 -11 -48 -27 -63 -36
-16 -9 -36 -20 -45 -26 -10 -5 -54 -31 -99 -57 -105 -61 -161 -125 -189 -218
-9 -30 -14 -790 -5 -807 8 -15 -4 -21 261 132 113 65 249 144 304 175 121 70
170 116 205 189 l26 56 3 399 c2 220 -1 403 -5 407 -5 5 -87 -37 -183 -92z"/>
</g>
</svg>
